  0
SECTION
  2
HEADER
  9
$ACADVER
  1
AC1024
  9
$ACADMAINTVER
 70
6
  9
$DWGCODEPAGE
  3
ANSI_1252
  9
$LASTSAVEDBY
  1
ezdxf
  9
$INSBASE
 10
0.0
 20
0.0
 30
0.0
  9
$EXTMIN
 10
1e+20
 20
1e+20
 30
1e+20
  9
$EXTMAX
 10
-1e+20
 20
-1e+20
 30
-1e+20
  9
$LIMMIN
 10
0.0
 20
0.0
  9
$LIMMAX
 10
420.0
 20
297.0
  9
$ORTHOMODE
 70
0
  9
$REGENMODE
 70
1
  9
$FILLMODE
 70
1
  9
$QTEXTMODE
 70
0
  9
$MIRRTEXT
 70
1
  9
$LTSCALE
 40
1.0
  9
$ATTMODE
 70
1
  9
$TEXTSIZE
 40
2.5
  9
$TRACEWID
 40
1.0
  9
$TEXTSTYLE
  7
Standard
  9
$CLAYER
  8
0
  9
$CELTYPE
  6
ByLayer
  9
$CECOLOR
 62
256
  9
$CELTSCALE
 40
1.0
  9
$DISPSILH
 70
0
  9
$DIMSCALE
 40
1.0
  9
$DIMASZ
 40
2.5
  9
$DIMEXO
 40
0.625
  9
$DIMDLI
 40
3.75
  9
$DIMRND
 40
0.0
  9
$DIMDLE
 40
0.0
  9
$DIMEXE
 40
1.25
  9
$DIMTP
 40
0.0
  9
$DIMTM
 40
0.0
  9
$DIMTXT
 40
2.5
  9
$DIMCEN
 40
2.5
  9
$DIMTSZ
 40
0.0
  9
$DIMTOL
 70
0
  9
$DIMLIM
 70
0
  9
$DIMTIH
 70
0
  9
$DIMTOH
 70
0
  9
$DIMSE1
 70
0
  9
$DIMSE2
 70
0
  9
$DIMTAD
 70
1
  9
$DIMZIN
 70
8
  9
$DIMBLK
  1

  9
$DIMASO
 70
1
  9
$DIMSHO
 70
1
  9
$DIMPOST
  1

  9
$DIMAPOST
  1

  9
$DIMALT
 70
0
  9
$DIMALTD
 70
3
  9
$DIMALTF
 40
0.03937007874
  9
$DIMLFAC
 40
1.0
  9
$DIMTOFL
 70
1
  9
$DIMTVP
 40
0.0
  9
$DIMTIX
 70
0
  9
$DIMSOXD
 70
0
  9
$DIMSAH
 70
0
  9
$DIMBLK1
  1

  9
$DIMBLK2
  1

  9
$DIMSTYLE
  2
ISO-25
  9
$DIMCLRD
 70
0
  9
$DIMCLRE
 70
0
  9
$DIMCLRT
 70
0
  9
$DIMTFAC
 40
1.0
  9
$DIMGAP
 40
0.625
  9
$DIMJUST
 70
0
  9
$DIMSD1
 70
0
  9
$DIMSD2
 70
0
  9
$DIMTOLJ
 70
0
  9
$DIMTZIN
 70
8
  9
$DIMALTZ
 70
0
  9
$DIMALTTZ
 70
0
  9
$DIMUPT
 70
0
  9
$DIMDEC
 70
2
  9
$DIMTDEC
 70
2
  9
$DIMALTU
 70
2
  9
$DIMALTTD
 70
3
  9
$DIMTXSTY
  7
Standard
  9
$DIMAUNIT
 70
0
  9
$DIMADEC
 70
0
  9
$DIMALTRND
 40
0.0
  9
$DIMAZIN
 70
0
  9
$DIMDSEP
 70
44
  9
$DIMATFIT
 70
3
  9
$DIMFRAC
 70
0
  9
$DIMLDRBLK
  1

  9
$DIMLUNIT
 70
2
  9
$DIMLWD
 70
-2
  9
$DIMLWE
 70
-2
  9
$DIMTMOVE
 70
0
  9
$DIMFXL
 40
1.0
  9
$DIMFXLON
 70
0
  9
$DIMJOGANG
 40
0.785398163397
  9
$DIMTFILL
 70
0
  9
$DIMTFILLCLR
 70
0
  9
$DIMARCSYM
 70
0
  9
$DIMLTYPE
  6

  9
$DIMLTEX1
  6

  9
$DIMLTEX2
  6

  9
$DIMTXTDIRECTION
 70
0
  9
$LUNITS
 70
2
  9
$LUPREC
 70
4
  9
$SKETCHINC
 40
1.0
  9
$FILLETRAD
 40
10.0
  9
$AUNITS
 70
0
  9
$AUPREC
 70
2
  9
$MENU
  1
.
  9
$ELEVATION
 40
0.0
  9
$PELEVATION
 40
0.0
  9
$THICKNESS
 40
0.0
  9
$LIMCHECK
 70
0
  9
$CHAMFERA
 40
0.0
  9
$CHAMFERB
 40
0.0
  9
$CHAMFERC
 40
0.0
  9
$CHAMFERD
 40
0.0
  9
$SKPOLY
 70
0
  9
$TDCREATE
 40
2460389.6169444444
  9
$TDUCREATE
 40
2458532.153996898
  9
$TDUPDATE
 40
2460389.6169560184
  9
$TDUUPDATE
 40
2458532.1544311
  9
$TDINDWG
 40
0.0
  9
$TDUSRTIMER
 40
0.0
  9
$USRTIMER
 70
1
  9
$ANGBASE
 50
0.0
  9
$ANGDIR
 70
0
  9
$PDMODE
 70
0
  9
$PDSIZE
 40
0.0
  9
$PLINEWID
 40
0.0
  9
$SPLFRAME
 70
0
  9
$SPLINETYPE
 70
6
  9
$SPLINESEGS
 70
8
  9
$HANDSEED
  5
1CA
  9
$SURFTAB1
 70
6
  9
$SURFTAB2
 70
6
  9
$SURFTYPE
 70
6
  9
$SURFU
 70
6
  9
$SURFV
 70
6
  9
$UCSBASE
  2

  9
$UCSNAME
  2

  9
$UCSORG
 10
0.0
 20
0.0
 30
0.0
  9
$UCSXDIR
 10
1.0
 20
0.0
 30
0.0
  9
$UCSYDIR
 10
0.0
 20
1.0
 30
0.0
  9
$UCSORTHOREF
  2

  9
$UCSORTHOVIEW
 70
0
  9
$UCSORGTOP
 10
0.0
 20
0.0
 30
0.0
  9
$UCSORGBOTTOM
 10
0.0
 20
0.0
 30
0.0
  9
$UCSORGLEFT
 10
0.0
 20
0.0
 30
0.0
  9
$UCSORGRIGHT
 10
0.0
 20
0.0
 30
0.0
  9
$UCSORGFRONT
 10
0.0
 20
0.0
 30
0.0
  9
$UCSORGBACK
 10
0.0
 20
0.0
 30
0.0
  9
$PUCSBASE
  2

  9
$PUCSNAME
  2

  9
$PUCSORG
 10
0.0
 20
0.0
 30
0.0
  9
$PUCSXDIR
 10
1.0
 20
0.0
 30
0.0
  9
$PUCSYDIR
 10
0.0
 20
1.0
 30
0.0
  9
$PUCSORTHOREF
  2

  9
$PUCSORTHOVIEW
 70
0
  9
$PUCSORGTOP
 10
0.0
 20
0.0
 30
0.0
  9
$PUCSORGBOTTOM
 10
0.0
 20
0.0
 30
0.0
  9
$PUCSORGLEFT
 10
0.0
 20
0.0
 30
0.0
  9
$PUCSORGRIGHT
 10
0.0
 20
0.0
 30
0.0
  9
$PUCSORGFRONT
 10
0.0
 20
0.0
 30
0.0
  9
$PUCSORGBACK
 10
0.0
 20
0.0
 30
0.0
  9
$USERI1
 70
0
  9
$USERI2
 70
0
  9
$USERI3
 70
0
  9
$USERI4
 70
0
  9
$USERI5
 70
0
  9
$USERR1
 40
0.0
  9
$USERR2
 40
0.0
  9
$USERR3
 40
0.0
  9
$USERR4
 40
0.0
  9
$USERR5
 40
0.0
  9
$WORLDVIEW
 70
1
  9
$SHADEDGE
 70
3
  9
$SHADEDIF
 70
70
  9
$TILEMODE
 70
1
  9
$MAXACTVP
 70
64
  9
$PINSBASE
 10
0.0
 20
0.0
 30
0.0
  9
$PLIMCHECK
 70
0
  9
$PEXTMIN
 10
1e+20
 20
1e+20
 30
1e+20
  9
$PEXTMAX
 10
-1e+20
 20
-1e+20
 30
-1e+20
  9
$PLIMMIN
 10
0.0
 20
0.0
  9
$PLIMMAX
 10
420.0
 20
297.0
  9
$UNITMODE
 70
0
  9
$VISRETAIN
 70
1
  9
$PLINEGEN
 70
0
  9
$PSLTSCALE
 70
1
  9
$TREEDEPTH
 70
3020
  9
$CMLSTYLE
  2
Standard
  9
$CMLJUST
 70
0
  9
$CMLSCALE
 40
20.0
  9
$PROXYGRAPHICS
 70
1
  9
$MEASUREMENT
 70
1
  9
$CELWEIGHT
370
-1
  9
$ENDCAPS
280
0
  9
$JOINSTYLE
280
0
  9
$LWDISPLAY
290
0
  9
$INSUNITS
 70
6
  9
$HYPERLINKBASE
  1

  9
$STYLESHEET
  1

  9
$XEDIT
290
1
  9
$CEPSNTYPE
380
0
  9
$PSTYLEMODE
290
1
  9
$FINGERPRINTGUID
  2
{F65D08C9-1481-4C2A-BB42-672303E4FBBB}
  9
$VERSIONGUID
  2
{219707F7-9681-4CB1-91AF-900F544FBC63}
  9
$EXTNAMES
290
1
  9
$PSVPSCALE
 40
0.0
  9
$OLESTARTUP
290
0
  9
$SORTENTS
280
127
  9
$INDEXCTL
280
0
  9
$HIDETEXT
280
1
  9
$XCLIPFRAME
280
0
  9
$HALOGAP
280
0
  9
$OBSCOLOR
 70
257
  9
$OBSLTYPE
280
0
  9
$INTERSECTIONDISPLAY
280
0
  9
$INTERSECTIONCOLOR
 70
257
  9
$DIMASSOC
280
2
  9
$PROJECTNAME
  1

  9
$CAMERADISPLAY
290
0
  9
$LENSLENGTH
 40
50.0
  9
$CAMERAHEIGHT
 40
0.0
  9
$STEPSPERSEC
 40
24.0
  9
$STEPSIZE
 40
100.0
  9
$3DDWFPREC
 40
2.0
  9
$PSOLWIDTH
 40
0.005
  9
$PSOLHEIGHT
 40
0.08
  9
$LOFTANG1
 40
1.570796326795
  9
$LOFTANG2
 40
1.570796326795
  9
$LOFTMAG1
 40
0.0
  9
$LOFTMAG2
 40
0.0
  9
$LOFTPARAM
 70
7
  9
$LOFTNORMALS
280
1
  9
$LATITUDE
 40
37.795
  9
$LONGITUDE
 40
-122.394
  9
$NORTHDIRECTION
 40
0.0
  9
$TIMEZONE
 70
-8000
  9
$LIGHTGLYPHDISPLAY
280
1
  9
$TILEMODELIGHTSYNCH
280
1
  9
$CMATERIAL
347
20
  9
$SOLIDHIST
280
0
  9
$SHOWHIST
280
1
  9
$DWFFRAME
280
2
  9
$DGNFRAME
280
2
  9
$REALWORLDSCALE
290
1
  9
$INTERFERECOLOR
 62
256
  9
$CSHADOW
280
0
  9
$SHADOWPLANELOCATION
 40
0.0
  0
ENDSEC
  0
SECTION
  2
CLASSES
  0
CLASS
  1
ACDBDICTIONARYWDFLT
  2
AcDbDictionaryWithDefault
  3
ObjectDBX Classes
 90
0
 91
0
280
0
281
0
  0
CLASS
  1
SUN
  2
AcDbSun
  3
SCENEOE
 90
1153
 91
0
280
0
281
0
  0
CLASS
  1
VISUALSTYLE
  2
AcDbVisualStyle
  3
ObjectDBX Classes
 90
4095
 91
0
280
0
281
0
  0
CLASS
  1
MATERIAL
  2
AcDbMaterial
  3
ObjectDBX Classes
 90
1153
 91
0
280
0
281
0
  0
CLASS
  1
SCALE
  2
AcDbScale
  3
ObjectDBX Classes
 90
1153
 91
0
280
0
281
0
  0
CLASS
  1
TABLESTYLE
  2
AcDbTableStyle
  3
ObjectDBX Classes
 90
4095
 91
0
280
0
281
0
  0
CLASS
  1
MLEADERSTYLE
  2
AcDbMLeaderStyle
  3
ACDB_MLEADERSTYLE_CLASS
 90
4095
 91
0
280
0
281
0
  0
CLASS
  1
DICTIONARYVAR
  2
AcDbDictionaryVar
  3
ObjectDBX Classes
 90
0
 91
0
280
0
281
0
  0
CLASS
  1
CELLSTYLEMAP
  2
AcDbCellStyleMap
  3
ObjectDBX Classes
 90
1152
 91
0
280
0
281
0
  0
CLASS
  1
MENTALRAYRENDERSETTINGS
  2
AcDbMentalRayRenderSettings
  3
SCENEOE
 90
1024
 91
0
280
0
281
0
  0
CLASS
  1
ACDBDETAILVIEWSTYLE
  2
AcDbDetailViewStyle
  3
ObjectDBX Classes
 90
1025
 91
0
280
0
281
0
  0
CLASS
  1
ACDBSECTIONVIEWSTYLE
  2
AcDbSectionViewStyle
  3
ObjectDBX Classes
 90
1025
 91
0
280
0
281
0
  0
CLASS
  1
RASTERVARIABLES
  2
AcDbRasterVariables
  3
ISM
 90
0
 91
0
280
0
281
0
  0
CLASS
  1
LAYOUT
  2
AcDbLayout
  3
ObjectDBX Classes
 90
0
 91
0
280
0
281
0
  0
CLASS
  1
ACDBPLACEHOLDER
  2
AcDbPlaceHolder
  3
ObjectDBX Classes
 90
0
 91
0
280
0
281
0
  0
ENDSEC
  0
SECTION
  2
TABLES
  0
TABLE
  2
VPORT
  5
8
330
0
100
AcDbSymbolTable
 70
1
  0
VPORT
  5
23
330
8
100
AcDbSymbolTableRecord
100
AcDbViewportTableRecord
  2
*Active
 70
0
 10
0.0
 20
0.0
 11
1.0
 21
1.0
 12
0.0
 22
0.0
 13
0.0
 23
0.0
 14
0.5
 24
0.5
 15
0.5
 25
0.5
 16
0.0
 26
0.0
 36
1.0
 17
0.0
 27
0.0
 37
0.0
 40
1000.0
 41
1.34
 42
50.0
 43
0.0
 44
0.0
 50
0.0
 51
0.0
 71
0
 72
1000
 73
1
 74
3
 75
0
 76
0
 77
0
 78
0
281
0
 65
0
146
0.0
  0
ENDTAB
  0
TABLE
  2
LTYPE
  5
2
330
0
100
AcDbSymbolTable
 70
3
  0
LTYPE
  5
24
330
2
100
AcDbSymbolTableRecord
100
AcDbLinetypeTableRecord
  2
ByBlock
 70
0
  3

 72
65
 73
0
 40
0.0
  0
LTYPE
  5
25
330
2
100
AcDbSymbolTableRecord
100
AcDbLinetypeTableRecord
  2
ByLayer
 70
0
  3

 72
65
 73
0
 40
0.0
  0
LTYPE
  5
26
330
2
100
AcDbSymbolTableRecord
100
AcDbLinetypeTableRecord
  2
Continuous
 70
0
  3

 72
65
 73
0
 40
0.0
  0
ENDTAB
  0
TABLE
  2
LAYER
  5
1
330
0
100
AcDbSymbolTable
 70
5
  0
LAYER
  5
27
330
1
100
AcDbSymbolTableRecord
100
AcDbLayerTableRecord
  2
0
 70
0
 62
7
  6
Continuous
370
-3
390
13
347
21
  0
LAYER
  5
28
330
1
100
AcDbSymbolTableRecord
100
AcDbLayerTableRecord
  2
Defpoints
 70
0
 62
7
  6
Continuous
290
0
370
-3
390
13
347
21
  0
LAYER
  5
2F
330
1
100
AcDbSymbolTableRecord
100
AcDbLayerTableRecord
  2
nodes_0.0_0.0_True_True
 70
0
 62
1
  6
Continuous
370
-3
390
13
347
21
  0
LAYER
  5
30
330
1
100
AcDbSymbolTableRecord
100
AcDbLayerTableRecord
  2
nodes_1.0_1.0_False_False
 70
0
 62
4
  6
Continuous
370
-3
390
13
347
21
  0
LAYER
  5
31
330
1
100
AcDbSymbolTableRecord
100
AcDbLayerTableRecord
  2
elements_default
 70
0
 62
2
  6
Continuous
370
-3
390
13
347
21
  0
ENDTAB
  0
TABLE
  2
STYLE
  5
5
330
0
100
AcDbSymbolTable
 70
1
  0
STYLE
  5
29
330
5
100
AcDbSymbolTableRecord
100
AcDbTextStyleTableRecord
  2
Standard
 70
0
 40
0.0
 41
1.0
 50
0.0
 71
0
 42
2.5
  3
txt
  4

  0
ENDTAB
  0
TABLE
  2
VIEW
  5
7
330
0
100
AcDbSymbolTable
 70
0
  0
ENDTAB
  0
TABLE
  2
UCS
  5
6
330
0
100
AcDbSymbolTable
 70
0
  0
ENDTAB
  0
TABLE
  2
APPID
  5
3
330
0
100
AcDbSymbolTable
 70
3
  0
APPID
  5
2A
330
3
100
AcDbSymbolTableRecord
100
AcDbRegAppTableRecord
  2
ACAD
 70
0
  0
APPID
  5
1C7
330
3
100
AcDbSymbolTableRecord
100
AcDbRegAppTableRecord
  2
HATCHBACKGROUNDCOLOR
 70
0
  0
APPID
  5
1C8
330
3
100
AcDbSymbolTableRecord
100
AcDbRegAppTableRecord
  2
EZDXF
 70
0
  0
ENDTAB
  0
TABLE
  2
DIMSTYLE
  5
4
330
0
100
AcDbSymbolTable
 70
1
100
AcDbDimStyleTable
  0
DIMSTYLE
105
2B
330
4
100
AcDbSymbolTableRecord
100
AcDbDimStyleTableRecord
  2
Standard
 70
0
 40
1.0
 41
2.5
 42
0.625
 43
3.75
 44
1.25
 45
0.0
 46
0.0
 47
0.0
 48
0.0
 49
2.5
140
2.5
141
2.5
142
0.0
143
0.03937007874
144
1.0
145
0.0
146
1.0
147
0.625
148
0.0
 69
0
 70
0
 71
0
 72
0
 73
0
 74
0
 75
0
 76
0
 77
1
 78
8
 79
3
170
0
171
3
172
1
173
0
174
0
175
0
176
0
177
0
178
0
179
2
271
2
272
2
273
2
274
3
275
0
276
0
277
2
278
44
279
0
280
0
281
0
282
0
283
0
284
8
285
0
286
0
288
0
289
3
290
0
371
-2
372
-2
  0
ENDTAB
  0
TABLE
  2
BLOCK_RECORD
  5
9
330
0
100
AcDbSymbolTable
 70
2
  0
BLOCK_RECORD
  5
17
330
9
100
AcDbSymbolTableRecord
100
AcDbBlockTableRecord
  2
*Model_Space
340
1A
 70
0
280
1
281
0
  0
BLOCK_RECORD
  5
1B
330
9
100
AcDbSymbolTableRecord
100
AcDbBlockTableRecord
  2
*Paper_Space
340
1E
 70
0
280
1
281
0
  0
ENDTAB
  0
ENDSEC
  0
SECTION
  2
BLOCKS
  0
BLOCK
  5
18
330
17
100
AcDbEntity
  8
0
100
AcDbBlockBegin
  2
*Model_Space
 70
0
 10
0.0
 20
0.0
 30
0.0
  3
*Model_Space
  1

  0
ENDBLK
  5
19
330
17
100
AcDbEntity
  8
0
100
AcDbBlockEnd
  0
BLOCK
  5
1C
330
1B
100
AcDbEntity
  8
0
100
AcDbBlockBegin
  2
*Paper_Space
 70
0
 10
0.0
 20
0.0
 30
0.0
  3
*Paper_Space
  1

  0
ENDBLK
  5
1D
330
1B
100
AcDbEntity
  8
0
100
AcDbBlockEnd
  0
ENDSEC
  0
SECTION
  2
ENTITIES
  0
POINT
  5
32
330
17
100
AcDbEntity
  8
nodes_1.0_1.0_False_False
100
AcDbPoint
 10
0.0
 20
0.0
 30
0.0
  0
POINT
  5
33
330
17
100
AcDbEntity
  8
nodes_0.0_0.0_True_True
100
AcDbPoint
 10
3.5355339059327378
 20
-3.5355339059327378
 30
0.0
  0
POINT
  5
34
330
17
100
AcDbEntity
  8
nodes_0.0_0.0_True_True
100
AcDbPoint
 10
3.5906314888159447
 20
-3.4795639829615714
 30
0.0
  0
POINT
  5
35
330
17
100
AcDbEntity
  8
nodes_0.0_0.0_True_True
100
AcDbPoint
 10
3.644843137107058
 20
-3.422735529643443
 30
0.0
  0
POINT
  5
36
330
17
100
AcDbEntity
  8
nodes_0.0_0.0_True_True
100
AcDbPoint
 10
3.6981554748930483
 20
-3.3650625675488666
 30
0.0
  0
POINT
  5
37
330
17
100
AcDbEntity
  8
nodes_0.0_0.0_True_True
100
AcDbPoint
 10
3.750555348152298
 20
-3.306559326618259
 30
0.0
  0
POINT
  5
38
330
17
100
AcDbEntity
  8
nodes_0.0_0.0_True_True
100
AcDbPoint
 10
3.8020298280001548
 20
-3.2472402416509185
 30
0.0
  0
POINT
  5
39
330
17
100
AcDbEntity
  8
nodes_0.0_0.0_True_True
100
AcDbPoint
 10
3.852566213878946
 20
-3.1871199487434483
 30
0.0
  0
POINT
  5
3A
330
17
100
AcDbEntity
  8
nodes_0.0_0.0_True_True
100
AcDbPoint
 10
3.902152036691649
 20
-3.1262132816785253
 30
0.0
  0
POINT
  5
3B
330
17
100
AcDbEntity
  8
nodes_0.0_0.0_True_True
100
AcDbPoint
 10
3.950775061878452
 20
-3.0645352682648825
 30
0.0
  0
POINT
  5
3C
330
17
100
AcDbEntity
  8
nodes_0.0_0.0_True_True
100
AcDbPoint
 10
3.998423292435453
 20
-3.00210112662942
 30
0.0
  0
POINT
  5
3D
330
17
100
AcDbEntity
  8
nodes_0.0_0.0_True_True
100
AcDbPoint
 10
4.045084971874737
 20
-2.938926261462366
 30
0.0
  0
POINT
  5
3E
330
17
100
AcDbEntity
  8
nodes_0.0_0.0_True_True
100
AcDbPoint
 10
4.090748587125118
 20
-2.875026260216393
 30
0.0
  0
POINT
  5
3F
330
17
100
AcDbEntity
  8
nodes_0.0_0.0_True_True
100
AcDbPoint
 10
4.1354028713728095
 20
-2.8104168892606527
 30
0.0
  0
POINT
  5
40
330
17
100
AcDbEntity
  8
nodes_0.0_0.0_True_True
100
AcDbPoint
 10
4.179036806841351
 20
-2.745114089990659
 30
0.0
  0
POINT
  5
41
330
17
100
AcDbEntity
  8
nodes_0.0_0.0_True_True
100
AcDbPoint
 10
4.221639627510076
 20
-2.6791339748949827
 30
0.0
  0
POINT
  5
42
330
17
100
AcDbEntity
  8
nodes_0.0_0.0_True_True
100
AcDbPoint
 10
4.263200821770462
 20
-2.612492823579744
 30
0.0
  0
POINT
  5
43
330
17
100
AcDbEntity
  8
nodes_0.0_0.0_True_True
100
AcDbPoint
 10
4.303710135019719
 20
-2.545207078751856
 30
0.0
  0
POINT
  5
44
330
17
100
AcDbEntity
  8
nodes_0.0_0.0_True_True
100
AcDbPoint
 10
4.3431575721909566
 20
-2.4772933421620373
 30
0.0
  0
POINT
  5
45
330
17
100
AcDbEntity
  8
nodes_0.0_0.0_True_True
100
AcDbPoint
 10
4.381533400219318
 20
-2.4087683705085765
 30
0.0
  0
POINT
  5
46
330
17
100
AcDbEntity
  8
nodes_0.0_0.0_True_True
100
AcDbPoint
 10
4.418828150443467
 20
-2.339649071302867
 30
0.0
  0
POINT
  5
47
330
17
100
AcDbEntity
  8
nodes_0.0_0.0_True_True
100
AcDbPoint
 10
4.455032620941839
 20
-2.2699524986977337
 30
0.0
  0
POINT
  5
48
330
17
100
AcDbEntity
  8
nodes_0.0_0.0_True_True
100
AcDbPoint
 10
4.490137878803078
 20
-2.1996958492795753
 30
0.0
  0
POINT
  5
49
330
17
100
AcDbEntity
  8
nodes_0.0_0.0_True_True
100
AcDbPoint
 10
4.524135262330098
 20
-2.128896457825363
 30
0.0
  0
POINT
  5
4A
330
17
100
AcDbEntity
  8
nodes_0.0_0.0_True_True
100
AcDbPoint
 10
4.557016383177227
 20
-2.0575717930255437
 30
0.0
  0
POINT
  5
4B
330
17
100
AcDbEntity
  8
nodes_0.0_0.0_True_True
100
AcDbPoint
 10
4.588773128419906
 20
-1.9857394531739028
 30
0.0
  0
POINT
  5
4C
330
17
100
AcDbEntity
  8
nodes_0.0_0.0_True_True
100
AcDbPoint
 10
4.619397662556434
 20
-1.9134171618254485
 30
0.0
  0
POINT
  5
4D
330
17
100
AcDbEntity
  8
nodes_0.0_0.0_True_True
100
AcDbPoint
 10
4.648882429441257
 20
-1.8406227634233896
 30
0.0
  0
POINT
  5
4E
330
17
100
AcDbEntity
  8
nodes_0.0_0.0_True_True
100
AcDbPoint
 10
4.677220154149337
 20
-1.7673742188962853
 30
0.0
  0
POINT
  5
4F
330
17
100
AcDbEntity
  8
nodes_0.0_0.0_True_True
100
AcDbPoint
 10
4.704403844771127
 20
-1.6936896012264566
 30
0.0
  0
POINT
  5
50
330
17
100
AcDbEntity
  8
nodes_0.0_0.0_True_True
100
AcDbPoint
 10
4.730426794137727
 20
-1.6195870909907466
 30
0.0
  0
POINT
  5
51
330
17
100
AcDbEntity
  8
nodes_0.0_0.0_True_True
100
AcDbPoint
 10
4.755282581475768
 20
-1.5450849718747368
 30
0.0
  0
POINT
  5
52
330
17
100
AcDbEntity
  8
nodes_0.0_0.0_True_True
100
AcDbPoint
 10
4.7789650739916505
 20
-1.4702016261615198
 30
0.0
  0
POINT
  5
53
330
17
100
AcDbEntity
  8
nodes_0.0_0.0_True_True
100
AcDbPoint
 10
4.801468428384715
 20
-1.394955530196146
 30
0.0
  0
POINT
  5
54
330
17
100
AcDbEntity
  8
nodes_0.0_0.0_True_True
100
AcDbPoint
 10
4.822787092288991
 20
-1.319365249826864
 30
0.0
  0
POINT
  5
55
330
17
100
AcDbEntity
  8
nodes_0.0_0.0_True_True
100
AcDbPoint
 10
4.842915805643156
 20
-1.2434494358242734
 30
0.0
  0
POINT
  5
56
330
17
100
AcDbEntity
  8
nodes_0.0_0.0_True_True
100
AcDbPoint
 10
4.861849601988383
 20
-1.167226819279527
 30
0.0
  0
POINT
  5
57
330
17
100
AcDbEntity
  8
nodes_0.0_0.0_True_True
100
AcDbPoint
 10
4.879583809693737
 20
-1.0907162069827125
 30
0.0
  0
POINT
  5
58
330
17
100
AcDbEntity
  8
nodes_0.0_0.0_True_True
100
AcDbPoint
 10
4.896114053108828
 20
-1.0139364767825623
 30
0.0
  0
POINT
  5
59
330
17
100
AcDbEntity
  8
nodes_0.0_0.0_True_True
100
AcDbPoint
 10
4.911436253643443
 20
-0.9369065729286228
 30
0.0
  0
POINT
  5
5A
330
17
100
AcDbEntity
  8
nodes_0.0_0.0_True_True
100
AcDbPoint
 10
4.92554663077387
 20
-0.8596455013970472
 30
0.0
  0
POINT
  5
5B
330
17
100
AcDbEntity
  8
nodes_0.0_0.0_True_True
100
AcDbPoint
 10
4.938441702975689
 20
-0.7821723252011543
 30
0.0
  0
POINT
  5
5C
330
17
100
AcDbEntity
  8
nodes_0.0_0.0_True_True
100
AcDbPoint
 10
4.950118288582788
 20
-0.7045061596879132
 30
0.0
  0
POINT
  5
5D
330
17
100
AcDbEntity
  8
nodes_0.0_0.0_True_True
100
AcDbPoint
 10
4.9605735065723895
 20
-0.6266661678215211
 30
0.0
  0
POINT
  5
5E
330
17
100
AcDbEntity
  8
nodes_0.0_0.0_True_True
100
AcDbPoint
 10
4.969804777275899
 20
-0.548671555455226
 30
0.0
  0
POINT
  5
5F
330
17
100
AcDbEntity
  8
nodes_0.0_0.0_True_True
100
AcDbPoint
 10
4.9778098230154
 20
-0.4705415665925711
 30
0.0
  0
POINT
  5
60
330
17
100
AcDbEntity
  8
nodes_0.0_0.0_True_True
100
AcDbPoint
 10
4.9845866686656395
 20
-0.39229547863922415
 30
0.0
  0
POINT
  5
61
330
17
100
AcDbEntity
  8
nodes_0.0_0.0_True_True
100
AcDbPoint
 10
4.990133642141358
 20
-0.31395259764656674
 30
0.0
  0
POINT
  5
62
330
17
100
AcDbEntity
  8
nodes_0.0_0.0_True_True
100
AcDbPoint
 10
4.99444937480985
 20
-0.23553225354821308
 30
0.0
  0
POINT
  5
63
330
17
100
AcDbEntity
  8
nodes_0.0_0.0_True_True
100
AcDbPoint
 10
4.997532801828658
 20
-0.15705379539064115
 30
0.0
  0
POINT
  5
64
330
17
100
AcDbEntity
  8
nodes_0.0_0.0_True_True
100
AcDbPoint
 10
4.999383162408303
 20
-0.07853658655910292
 30
0.0
  0
POINT
  5
65
330
17
100
AcDbEntity
  8
nodes_0.0_0.0_True_True
100
AcDbPoint
 10
5.0
 20
5.551115123125783e-16
 30
0.0
  0
POINT
  5
66
330
17
100
AcDbEntity
  8
nodes_0.0_0.0_True_True
100
AcDbPoint
 10
4.999383162408303
 20
0.07853658655910348
 30
0.0
  0
POINT
  5
67
330
17
100
AcDbEntity
  8
nodes_0.0_0.0_True_True
100
AcDbPoint
 10
4.997532801828658
 20
0.15705379539064168
 30
0.0
  0
POINT
  5
68
330
17
100
AcDbEntity
  8
nodes_0.0_0.0_True_True
100
AcDbPoint
 10
4.99444937480985
 20
0.23553225354821364
 30
0.0
  0
POINT
  5
69
330
17
100
AcDbEntity
  8
nodes_0.0_0.0_True_True
100
AcDbPoint
 10
4.990133642141358
 20
0.3139525976465673
 30
0.0
  0
POINT
  5
6A
330
17
100
AcDbEntity
  8
nodes_0.0_0.0_True_True
100
AcDbPoint
 10
4.9845866686656395
 20
0.39229547863922526
 30
0.0
  0
POINT
  5
6B
330
17
100
AcDbEntity
  8
nodes_0.0_0.0_True_True
100
AcDbPoint
 10
4.9778098230154
 20
0.47054156659257224
 30
0.0
  0
POINT
  5
6C
330
17
100
AcDbEntity
  8
nodes_0.0_0.0_True_True
100
AcDbPoint
 10
4.969804777275899
 20
0.5486715554552266
 30
0.0
  0
POINT
  5
6D
330
17
100
AcDbEntity
  8
nodes_0.0_0.0_True_True
100
AcDbPoint
 10
4.9605735065723895
 20
0.6266661678215215
 30
0.0
  0
POINT
  5
6E
330
17
100
AcDbEntity
  8
nodes_0.0_0.0_True_True
100
AcDbPoint
 10
4.950118288582788
 20
0.7045061596879137
 30
0.0
  0
POINT
  5
6F
330
17
100
AcDbEntity
  8
nodes_0.0_0.0_True_True
100
AcDbPoint
 10
4.938441702975688
 20
0.7821723252011549
 30
0.0
  0
POINT
  5
70
330
17
100
AcDbEntity
  8
nodes_0.0_0.0_True_True
100
AcDbPoint
 10
4.925546630773869
 20
0.8596455013970483
 30
0.0
  0
POINT
  5
71
330
17
100
AcDbEntity
  8
nodes_0.0_0.0_True_True
100
AcDbPoint
 10
4.911436253643443
 20
0.9369065729286232
 30
0.0
  0
POINT
  5
72
330
17
100
AcDbEntity
  8
nodes_0.0_0.0_True_True
100
AcDbPoint
 10
4.896114053108828
 20
1.0139364767825627
 30
0.0
  0
POINT
  5
73
330
17
100
AcDbEntity
  8
nodes_0.0_0.0_True_True
100
AcDbPoint
 10
4.879583809693737
 20
1.0907162069827132
 30
0.0
  0
POINT
  5
74
330
17
100
AcDbEntity
  8
nodes_0.0_0.0_True_True
100
AcDbPoint
 10
4.861849601988383
 20
1.167226819279527
 30
0.0
  0
POINT
  5
75
330
17
100
AcDbEntity
  8
nodes_0.0_0.0_True_True
100
AcDbPoint
 10
4.842915805643155
 20
1.2434494358242745
 30
0.0
  0
POINT
  5
76
330
17
100
AcDbEntity
  8
nodes_0.0_0.0_True_True
100
AcDbPoint
 10
4.822787092288991
 20
1.3193652498268647
 30
0.0
  0
POINT
  5
77
330
17
100
AcDbEntity
  8
nodes_0.0_0.0_True_True
100
AcDbPoint
 10
4.801468428384715
 20
1.394955530196147
 30
0.0
  0
POINT
  5
78
330
17
100
AcDbEntity
  8
nodes_0.0_0.0_True_True
100
AcDbPoint
 10
4.7789650739916505
 20
1.4702016261615203
 30
0.0
  0
POINT
  5
79
330
17
100
AcDbEntity
  8
nodes_0.0_0.0_True_True
100
AcDbPoint
 10
4.755282581475767
 20
1.545084971874737
 30
0.0
  0
POINT
  5
7A
330
17
100
AcDbEntity
  8
nodes_0.0_0.0_True_True
100
AcDbPoint
 10
4.730426794137727
 20
1.6195870909907475
 30
0.0
  0
POINT
  5
7B
330
17
100
AcDbEntity
  8
nodes_0.0_0.0_True_True
100
AcDbPoint
 10
4.704403844771127
 20
1.693689601226457
 30
0.0
  0
POINT
  5
7C
330
17
100
AcDbEntity
  8
nodes_0.0_0.0_True_True
100
AcDbPoint
 10
4.677220154149336
 20
1.7673742188962862
 30
0.0
  0
POINT
  5
7D
330
17
100
AcDbEntity
  8
nodes_0.0_0.0_True_True
100
AcDbPoint
 10
4.648882429441256
 20
1.84062276342339
 30
0.0
  0
POINT
  5
7E
330
17
100
AcDbEntity
  8
nodes_0.0_0.0_True_True
100
AcDbPoint
 10
4.619397662556434
 20
1.913417161825449
 30
0.0
  0
POINT
  5
7F
330
17
100
AcDbEntity
  8
nodes_0.0_0.0_True_True
100
AcDbPoint
 10
4.588773128419906
 20
1.9857394531739037
 30
0.0
  0
POINT
  5
80
330
17
100
AcDbEntity
  8
nodes_0.0_0.0_True_True
100
AcDbPoint
 10
4.557016383177227
 20
2.057571793025544
 30
0.0
  0
POINT
  5
81
330
17
100
AcDbEntity
  8
nodes_0.0_0.0_True_True
100
AcDbPoint
 10
4.524135262330097
 20
2.128896457825364
 30
0.0
  0
POINT
  5
82
330
17
100
AcDbEntity
  8
nodes_0.0_0.0_True_True
100
AcDbPoint
 10
4.490137878803078
 20
2.1996958492795757
 30
0.0
  0
POINT
  5
83
330
17
100
AcDbEntity
  8
nodes_0.0_0.0_True_True
100
AcDbPoint
 10
4.455032620941839
 20
2.2699524986977337
 30
0.0
  0
POINT
  5
84
330
17
100
AcDbEntity
  8
nodes_0.0_0.0_True_True
100
AcDbPoint
 10
4.418828150443467
 20
2.3396490713028673
 30
0.0
  0
POINT
  5
85
330
17
100
AcDbEntity
  8
nodes_0.0_0.0_True_True
100
AcDbPoint
 10
4.381533400219318
 20
2.4087683705085765
 30
0.0
  0
POINT
  5
86
330
17
100
AcDbEntity
  8
nodes_0.0_0.0_True_True
100
AcDbPoint
 10
4.343157572190956
 20
2.4772933421620382
 30
0.0
  0
POINT
  5
87
330
17
100
AcDbEntity
  8
nodes_0.0_0.0_True_True
100
AcDbPoint
 10
4.303710135019719
 20
2.5452070787518566
 30
0.0
  0
POINT
  5
88
330
17
100
AcDbEntity
  8
nodes_0.0_0.0_True_True
100
AcDbPoint
 10
4.26320082177046
 20
2.6124928235797453
 30
0.0
  0
POINT
  5
89
330
17
100
AcDbEntity
  8
nodes_0.0_0.0_True_True
100
AcDbPoint
 10
4.221639627510075
 20
2.679133974894983
 30
0.0
  0
POINT
  5
8A
330
17
100
AcDbEntity
  8
nodes_0.0_0.0_True_True
100
AcDbPoint
 10
4.179036806841351
 20
2.745114089990659
 30
0.0
  0
POINT
  5
8B
330
17
100
AcDbEntity
  8
nodes_0.0_0.0_True_True
100
AcDbPoint
 10
4.135402871372809
 20
2.8104168892606536
 30
0.0
  0
POINT
  5
8C
330
17
100
AcDbEntity
  8
nodes_0.0_0.0_True_True
100
AcDbPoint
 10
4.090748587125117
 20
2.875026260216393
 30
0.0
  0
POINT
  5
8D
330
17
100
AcDbEntity
  8
nodes_0.0_0.0_True_True
100
AcDbPoint
 10
4.045084971874736
 20
2.9389262614623664
 30
0.0
  0
POINT
  5
8E
330
17
100
AcDbEntity
  8
nodes_0.0_0.0_True_True
100
AcDbPoint
 10
3.9984232924354526
 20
3.0021011266294204
 30
0.0
  0
POINT
  5
8F
330
17
100
AcDbEntity
  8
nodes_0.0_0.0_True_True
100
AcDbPoint
 10
3.950775061878452
 20
3.0645352682648825
 30
0.0
  0
POINT
  5
90
330
17
100
AcDbEntity
  8
nodes_0.0_0.0_True_True
100
AcDbPoint
 10
3.902152036691648
 20
3.1262132816785266
 30
0.0
  0
POINT
  5
91
330
17
100
AcDbEntity
  8
nodes_0.0_0.0_True_True
100
AcDbPoint
 10
3.8525662138789456
 20
3.1871199487434487
 30
0.0
  0
POINT
  5
92
330
17
100
AcDbEntity
  8
nodes_0.0_0.0_True_True
100
AcDbPoint
 10
3.802029828000154
 20
3.247240241650919
 30
0.0
  0
POINT
  5
93
330
17
100
AcDbEntity
  8
nodes_0.0_0.0_True_True
100
AcDbPoint
 10
3.7505553481522975
 20
3.3065593266182596
 30
0.0
  0
POINT
  5
94
330
17
100
AcDbEntity
  8
nodes_0.0_0.0_True_True
100
AcDbPoint
 10
3.6981554748930483
 20
3.3650625675488666
 30
0.0
  0
POINT
  5
95
330
17
100
AcDbEntity
  8
nodes_0.0_0.0_True_True
100
AcDbPoint
 10
3.644843137107057
 20
3.4227355296434436
 30
0.0
  0
POINT
  5
96
330
17
100
AcDbEntity
  8
nodes_0.0_0.0_True_True
100
AcDbPoint
 10
3.5906314888159443
 20
3.4795639829615714
 30
0.0
  0
POINT
  5
97
330
17
100
AcDbEntity
  8
nodes_0.0_0.0_True_True
100
AcDbPoint
 10
3.5355339059327378
 20
3.5355339059327378
 30
0.0
  0
POINT
  5
98
330
17
100
AcDbEntity
  8
nodes_0.0_0.0_True_True
100
AcDbPoint
 10
-3.5355339059327386
 20
-3.5355339059327373
 30
0.0
  0
POINT
  5
99
330
17
100
AcDbEntity
  8
nodes_0.0_0.0_True_True
100
AcDbPoint
 10
-3.5906314888159447
 20
-3.4795639829615714
 30
0.0
  0
POINT
  5
9A
330
17
100
AcDbEntity
  8
nodes_0.0_0.0_True_True
100
AcDbPoint
 10
-3.644843137107058
 20
-3.4227355296434436
 30
0.0
  0
POINT
  5
9B
330
17
100
AcDbEntity
  8
nodes_0.0_0.0_True_True
100
AcDbPoint
 10
-3.6981554748930496
 20
-3.3650625675488657
 30
0.0
  0
POINT
  5
9C
330
17
100
AcDbEntity
  8
nodes_0.0_0.0_True_True
100
AcDbPoint
 10
-3.7505553481522984
 20
-3.3065593266182587
 30
0.0
  0
POINT
  5
9D
330
17
100
AcDbEntity
  8
nodes_0.0_0.0_True_True
100
AcDbPoint
 10
-3.802029828000155
 20
-3.2472402416509176
 30
0.0
  0
POINT
  5
9E
330
17
100
AcDbEntity
  8
nodes_0.0_0.0_True_True
100
AcDbPoint
 10
-3.852566213878946
 20
-3.1871199487434483
 30
0.0
  0
POINT
  5
9F
330
17
100
AcDbEntity
  8
nodes_0.0_0.0_True_True
100
AcDbPoint
 10
-3.9021520366916485
 20
-3.1262132816785257
 30
0.0
  0
POINT
  5
A0
330
17
100
AcDbEntity
  8
nodes_0.0_0.0_True_True
100
AcDbPoint
 10
-3.9507750618784527
 20
-3.064535268264881
 30
0.0
  0
POINT
  5
A1
330
17
100
AcDbEntity
  8
nodes_0.0_0.0_True_True
100
AcDbPoint
 10
-3.9984232924354535
 20
-3.0021011266294195
 30
0.0
  0
POINT
  5
A2
330
17
100
AcDbEntity
  8
nodes_0.0_0.0_True_True
100
AcDbPoint
 10
-4.045084971874737
 20
-2.938926261462365
 30
0.0
  0
POINT
  5
A3
330
17
100
AcDbEntity
  8
nodes_0.0_0.0_True_True
100
AcDbPoint
 10
-4.090748587125118
 20
-2.8750262602163925
 30
0.0
  0
POINT
  5
A4
330
17
100
AcDbEntity
  8
nodes_0.0_0.0_True_True
100
AcDbPoint
 10
-4.1354028713728095
 20
-2.8104168892606527
 30
0.0
  0
POINT
  5
A5
330
17
100
AcDbEntity
  8
nodes_0.0_0.0_True_True
100
AcDbPoint
 10
-4.179036806841352
 20
-2.745114089990657
 30
0.0
  0
POINT
  5
A6
330
17
100
AcDbEntity
  8
nodes_0.0_0.0_True_True
100
AcDbPoint
 10
-4.221639627510076
 20
-2.6791339748949823
 30
0.0
  0
POINT
  5
A7
330
17
100
AcDbEntity
  8
nodes_0.0_0.0_True_True
100
AcDbPoint
 10
-4.263200821770462
 20
-2.6124928235797436
 30
0.0
  0
POINT
  5
A8
330
17
100
AcDbEntity
  8
nodes_0.0_0.0_True_True
100
AcDbPoint
 10
-4.303710135019719
 20
-2.545207078751856
 30
0.0
  0
POINT
  5
A9
330
17
100
AcDbEntity
  8
nodes_0.0_0.0_True_True
100
AcDbPoint
 10
-4.343157572190957
 20
-2.477293342162036
 30
0.0
  0
POINT
  5
AA
330
17
100
AcDbEntity
  8
nodes_0.0_0.0_True_True
100
AcDbPoint
 10
-4.381533400219318
 20
-2.408768370508575
 30
0.0
  0
POINT
  5
AB
330
17
100
AcDbEntity
  8
nodes_0.0_0.0_True_True
100
AcDbPoint
 10
-4.418828150443468
 20
-2.339649071302866
 30
0.0
  0
POINT
  5
AC
330
17
100
AcDbEntity
  8
nodes_0.0_0.0_True_True
100
AcDbPoint
 10
-4.455032620941839
 20
-2.2699524986977333
 30
0.0
  0
POINT
  5
AD
330
17
100
AcDbEntity
  8
nodes_0.0_0.0_True_True
100
AcDbPoint
 10
-4.490137878803078
 20
-2.1996958492795753
 30
0.0
  0
POINT
  5
AE
330
17
100
AcDbEntity
  8
nodes_0.0_0.0_True_True
100
AcDbPoint
 10
-4.524135262330097
 20
-2.1288964578253635
 30
0.0
  0
POINT
  5
AF
330
17
100
AcDbEntity
  8
nodes_0.0_0.0_True_True
100
AcDbPoint
 10
-4.557016383177227
 20
-2.0575717930255424
 30
0.0
  0
POINT
  5
B0
330
17
100
AcDbEntity
  8
nodes_0.0_0.0_True_True
100
AcDbPoint
 10
-4.5887731284199065
 20
-1.985739453173902
 30
0.0
  0
POINT
  5
B1
330
17
100
AcDbEntity
  8
nodes_0.0_0.0_True_True
100
AcDbPoint
 10
-4.619397662556434
 20
-1.9134171618254483
 30
0.0
  0
POINT
  5
B2
330
17
100
AcDbEntity
  8
nodes_0.0_0.0_True_True
100
AcDbPoint
 10
-4.648882429441257
 20
-1.8406227634233896
 30
0.0
  0
POINT
  5
B3
330
17
100
AcDbEntity
  8
nodes_0.0_0.0_True_True
100
AcDbPoint
 10
-4.677220154149337
 20
-1.7673742188962838
 30
0.0
  0
POINT
  5
B4
330
17
100
AcDbEntity
  8
nodes_0.0_0.0_True_True
100
AcDbPoint
 10
-4.704403844771128
 20
-1.6936896012264555
 30
0.0
  0
POINT
  5
B5
330
17
100
AcDbEntity
  8
nodes_0.0_0.0_True_True
100
AcDbPoint
 10
-4.730426794137727
 20
-1.619587090990746
 30
0.0
  0
POINT
  5
B6
330
17
100
AcDbEntity
  8
nodes_0.0_0.0_True_True
100
AcDbPoint
 10
-4.755282581475768
 20
-1.5450849718747364
 30
0.0
  0
POINT
  5
B7
330
17
100
AcDbEntity
  8
nodes_0.0_0.0_True_True
100
AcDbPoint
 10
-4.7789650739916505
 20
-1.4702016261615194
 30
0.0
  0
POINT
  5
B8
330
17
100
AcDbEntity
  8
nodes_0.0_0.0_True_True
100
AcDbPoint
 10
-4.801468428384715
 20
-1.3949555301961465
 30
0.0
  0
POINT
  5
B9
330
17
100
AcDbEntity
  8
nodes_0.0_0.0_True_True
100
AcDbPoint
 10
-4.822787092288991
 20
-1.3193652498268629
 30
0.0
  0
POINT
  5
BA
330
17
100
AcDbEntity
  8
nodes_0.0_0.0_True_True
100
AcDbPoint
 10
-4.842915805643156
 20
-1.243449435824273
 30
0.0
  0
POINT
  5
BB
330
17
100
AcDbEntity
  8
nodes_0.0_0.0_True_True
100
AcDbPoint
 10
-4.861849601988383
 20
-1.1672268192795263
 30
0.0
  0
POINT
  5
BC
330
17
100
AcDbEntity
  8
nodes_0.0_0.0_True_True
100
AcDbPoint
 10
-4.879583809693737
 20
-1.0907162069827125
 30
0.0
  0
POINT
  5
BD
330
17
100
AcDbEntity
  8
nodes_0.0_0.0_True_True
100
AcDbPoint
 10
-4.896114053108829
 20
-1.0139364767825605
 30
0.0
  0
POINT
  5
BE
330
17
100
AcDbEntity
  8
nodes_0.0_0.0_True_True
100
AcDbPoint
 10
-4.911436253643443
 20
-0.9369065729286217
 30
0.0
  0
POINT
  5
BF
330
17
100
AcDbEntity
  8
nodes_0.0_0.0_True_True
100
AcDbPoint
 10
-4.92554663077387
 20
-0.8596455013970467
 30
0.0
  0
POINT
  5
C0
330
17
100
AcDbEntity
  8
nodes_0.0_0.0_True_True
100
AcDbPoint
 10
-4.938441702975689
 20
-0.7821723252011537
 30
0.0
  0
POINT
  5
C1
330
17
100
AcDbEntity
  8
nodes_0.0_0.0_True_True
100
AcDbPoint
 10
-4.950118288582788
 20
-0.7045061596879131
 30
0.0
  0
POINT
  5
C2
330
17
100
AcDbEntity
  8
nodes_0.0_0.0_True_True
100
AcDbPoint
 10
-4.9605735065723895
 20
-0.6266661678215214
 30
0.0
  0
POINT
  5
C3
330
17
100
AcDbEntity
  8
nodes_0.0_0.0_True_True
100
AcDbPoint
 10
-4.969804777275899
 20
-0.5486715554552248
 30
0.0
  0
POINT
  5
C4
330
17
100
AcDbEntity
  8
nodes_0.0_0.0_True_True
100
AcDbPoint
 10
-4.9778098230154
 20
-0.4705415665925705
 30
0.0
  0
POINT
  5
C5
330
17
100
AcDbEntity
  8
nodes_0.0_0.0_True_True
100
AcDbPoint
 10
-4.9845866686656395
 20
-0.3922954786392241
 30
0.0
  0
POINT
  5
C6
330
17
100
AcDbEntity
  8
nodes_0.0_0.0_True_True
100
AcDbPoint
 10
-4.990133642141358
 20
-0.31395259764656674
 30
0.0
  0
POINT
  5
C7
330
17
100
AcDbEntity
  8
nodes_0.0_0.0_True_True
100
AcDbPoint
 10
-4.99444937480985
 20
-0.23553225354821133
 30
0.0
  0
POINT
  5
C8
330
17
100
AcDbEntity
  8
nodes_0.0_0.0_True_True
100
AcDbPoint
 10
-4.997532801828658
 20
-0.15705379539063996
 30
0.0
  0
POINT
  5
C9
330
17
100
AcDbEntity
  8
nodes_0.0_0.0_True_True
100
AcDbPoint
 10
-4.999383162408303
 20
-0.07853658655910231
 30
0.0
  0
POINT
  5
CA
330
17
100
AcDbEntity
  8
nodes_0.0_0.0_True_True
100
AcDbPoint
 10
-5.0
 20
6.123233995736766e-16
 30
0.0
  0
POINT
  5
CB
330
17
100
AcDbEntity
  8
nodes_0.0_0.0_True_True
100
AcDbPoint
 10
-4.999383162408303
 20
0.07853658655910355
 30
0.0
  0
POINT
  5
CC
330
17
100
AcDbEntity
  8
nodes_0.0_0.0_True_True
100
AcDbPoint
 10
-4.997532801828658
 20
0.15705379539064118
 30
0.0
  0
POINT
  5
CD
330
17
100
AcDbEntity
  8
nodes_0.0_0.0_True_True
100
AcDbPoint
 10
-4.994449374809849
 20
0.23553225354821478
 30
0.0
  0
POINT
  5
CE
330
17
100
AcDbEntity
  8
nodes_0.0_0.0_True_True
100
AcDbPoint
 10
-4.990133642141358
 20
0.3139525976465679
 30
0.0
  0
POINT
  5
CF
330
17
100
AcDbEntity
  8
nodes_0.0_0.0_True_True
100
AcDbPoint
 10
-4.9845866686656395
 20
0.3922954786392253
 30
0.0
  0
POINT
  5
D0
330
17
100
AcDbEntity
  8
nodes_0.0_0.0_True_True
100
AcDbPoint
 10
-4.9778098230154
 20
0.47054156659257396
 30
0.0
  0
POINT
  5
D1
330
17
100
AcDbEntity
  8
nodes_0.0_0.0_True_True
100
AcDbPoint
 10
-4.969804777275898
 20
0.5486715554552282
 30
0.0
  0
POINT
  5
D2
330
17
100
AcDbEntity
  8
nodes_0.0_0.0_True_True
100
AcDbPoint
 10
-4.960573506572389
 20
0.6266661678215226
 30
0.0
  0
POINT
  5
D3
330
17
100
AcDbEntity
  8
nodes_0.0_0.0_True_True
100
AcDbPoint
 10
-4.950118288582788
 20
0.7045061596879143
 30
0.0
  0
POINT
  5
D4
330
17
100
AcDbEntity
  8
nodes_0.0_0.0_True_True
100
AcDbPoint
 10
-4.938441702975688
 20
0.7821723252011549
 30
0.0
  0
POINT
  5
D5
330
17
100
AcDbEntity
  8
nodes_0.0_0.0_True_True
100
AcDbPoint
 10
-4.925546630773869
 20
0.8596455013970479
 30
0.0
  0
POINT
  5
D6
330
17
100
AcDbEntity
  8
nodes_0.0_0.0_True_True
100
AcDbPoint
 10
-4.911436253643443
 20
0.9369065729286229
 30
0.0
  0
POINT
  5
D7
330
17
100
AcDbEntity
  8
nodes_0.0_0.0_True_True
100
AcDbPoint
 10
-4.896114053108828
 20
1.0139364767825638
 30
0.0
  0
POINT
  5
D8
330
17
100
AcDbEntity
  8
nodes_0.0_0.0_True_True
100
AcDbPoint
 10
-4.879583809693736
 20
1.0907162069827139
 30
0.0
  0
POINT
  5
D9
330
17
100
AcDbEntity
  8
nodes_0.0_0.0_True_True
100
AcDbPoint
 10
-4.861849601988383
 20
1.1672268192795276
 30
0.0
  0
POINT
  5
DA
330
17
100
AcDbEntity
  8
nodes_0.0_0.0_True_True
100
AcDbPoint
 10
-4.8429158056431545
 20
1.2434494358242763
 30
0.0
  0
POINT
  5
DB
330
17
100
AcDbEntity
  8
nodes_0.0_0.0_True_True
100
AcDbPoint
 10
-4.82278709228899
 20
1.3193652498268662
 30
0.0
  0
POINT
  5
DC
330
17
100
AcDbEntity
  8
nodes_0.0_0.0_True_True
100
AcDbPoint
 10
-4.801468428384715
 20
1.3949555301961478
 30
0.0
  0
POINT
  5
DD
330
17
100
AcDbEntity
  8
nodes_0.0_0.0_True_True
100
AcDbPoint
 10
-4.7789650739916505
 20
1.4702016261615207
 30
0.0
  0
POINT
  5
DE
330
17
100
AcDbEntity
  8
nodes_0.0_0.0_True_True
100
AcDbPoint
 10
-4.755282581475767
 20
1.5450849718747375
 30
0.0
  0
POINT
  5
DF
330
17
100
AcDbEntity
  8
nodes_0.0_0.0_True_True
100
AcDbPoint
 10
-4.730426794137727
 20
1.6195870909907473
 30
0.0
  0
POINT
  5
E0
330
17
100
AcDbEntity
  8
nodes_0.0_0.0_True_True
100
AcDbPoint
 10
-4.704403844771127
 20
1.6936896012264566
 30
0.0
  0
POINT
  5
E1
330
17
100
AcDbEntity
  8
nodes_0.0_0.0_True_True
100
AcDbPoint
 10
-4.677220154149336
 20
1.767374218896287
 30
0.0
  0
POINT
  5
E2
330
17
100
AcDbEntity
  8
nodes_0.0_0.0_True_True
100
AcDbPoint
 10
-4.648882429441256
 20
1.8406227634233907
 30
0.0
  0
POINT
  5
E3
330
17
100
AcDbEntity
  8
nodes_0.0_0.0_True_True
100
AcDbPoint
 10
-4.619397662556434
 20
1.9134171618254494
 30
0.0
  0
POINT
  5
E4
330
17
100
AcDbEntity
  8
nodes_0.0_0.0_True_True
100
AcDbPoint
 10
-4.588773128419905
 20
1.9857394531739052
 30
0.0
  0
POINT
  5
E5
330
17
100
AcDbEntity
  8
nodes_0.0_0.0_True_True
100
AcDbPoint
 10
-4.557016383177225
 20
2.0575717930255455
 30
0.0
  0
POINT
  5
E6
330
17
100
AcDbEntity
  8
nodes_0.0_0.0_True_True
100
AcDbPoint
 10
-4.5241352623300966
 20
2.1288964578253644
 30
0.0
  0
POINT
  5
E7
330
17
100
AcDbEntity
  8
nodes_0.0_0.0_True_True
100
AcDbPoint
 10
-4.490137878803077
 20
2.1996958492795766
 30
0.0
  0
POINT
  5
E8
330
17
100
AcDbEntity
  8
nodes_0.0_0.0_True_True
100
AcDbPoint
 10
-4.455032620941839
 20
2.269952498697734
 30
0.0
  0
POINT
  5
E9
330
17
100
AcDbEntity
  8
nodes_0.0_0.0_True_True
100
AcDbPoint
 10
-4.418828150443467
 20
2.339649071302867
 30
0.0
  0
POINT
  5
EA
330
17
100
AcDbEntity
  8
nodes_0.0_0.0_True_True
100
AcDbPoint
 10
-4.381533400219318
 20
2.408768370508576
 30
0.0
  0
POINT
  5
EB
330
17
100
AcDbEntity
  8
nodes_0.0_0.0_True_True
100
AcDbPoint
 10
-4.343157572190956
 20
2.4772933421620387
 30
0.0
  0
POINT
  5
EC
330
17
100
AcDbEntity
  8
nodes_0.0_0.0_True_True
100
AcDbPoint
 10
-4.303710135019718
 20
2.545207078751857
 30
0.0
  0
POINT
  5
ED
330
17
100
AcDbEntity
  8
nodes_0.0_0.0_True_True
100
AcDbPoint
 10
-4.26320082177046
 20
2.6124928235797467
 30
0.0
  0
POINT
  5
EE
330
17
100
AcDbEntity
  8
nodes_0.0_0.0_True_True
100
AcDbPoint
 10
-4.221639627510074
 20
2.679133974894985
 30
0.0
  0
POINT
  5
EF
330
17
100
AcDbEntity
  8
nodes_0.0_0.0_True_True
100
AcDbPoint
 10
-4.17903680684135
 20
2.7451140899906603
 30
0.0
  0
POINT
  5
F0
330
17
100
AcDbEntity
  8
nodes_0.0_0.0_True_True
100
AcDbPoint
 10
-4.135402871372808
 20
2.810416889260654
 30
0.0
  0
POINT
  5
F1
330
17
100
AcDbEntity
  8
nodes_0.0_0.0_True_True
100
AcDbPoint
 10
-4.090748587125116
 20
2.8750262602163934
 30
0.0
  0
POINT
  5
F2
330
17
100
AcDbEntity
  8
nodes_0.0_0.0_True_True
100
AcDbPoint
 10
-4.045084971874736
 20
2.9389262614623664
 30
0.0
  0
POINT
  5
F3
330
17
100
AcDbEntity
  8
nodes_0.0_0.0_True_True
100
AcDbPoint
 10
-3.9984232924354526
 20
3.00210112662942
 30
0.0
  0
POINT
  5
F4
330
17
100
AcDbEntity
  8
nodes_0.0_0.0_True_True
100
AcDbPoint
 10
-3.950775061878452
 20
3.0645352682648817
 30
0.0
  0
POINT
  5
F5
330
17
100
AcDbEntity
  8
nodes_0.0_0.0_True_True
100
AcDbPoint
 10
-3.902152036691648
 20
3.126213281678527
 30
0.0
  0
POINT
  5
F6
330
17
100
AcDbEntity
  8
nodes_0.0_0.0_True_True
100
AcDbPoint
 10
-3.8525662138789456
 20
3.187119948743449
 30
0.0
  0
POINT
  5
F7
330
17
100
AcDbEntity
  8
nodes_0.0_0.0_True_True
100
AcDbPoint
 10
-3.802029828000153
 20
3.2472402416509203
 30
0.0
  0
POINT
  5
F8
330
17
100
AcDbEntity
  8
nodes_0.0_0.0_True_True
100
AcDbPoint
 10
-3.750555348152296
 20
3.3065593266182614
 30
0.0
  0
POINT
  5
F9
330
17
100
AcDbEntity
  8
nodes_0.0_0.0_True_True
100
AcDbPoint
 10
-3.6981554748930474
 20
3.3650625675488683
 30
0.0
  0
POINT
  5
FA
330
17
100
AcDbEntity
  8
nodes_0.0_0.0_True_True
100
AcDbPoint
 10
-3.6448431371070567
 20
3.422735529643444
 30
0.0
  0
POINT
  5
FB
330
17
100
AcDbEntity
  8
nodes_0.0_0.0_True_True
100
AcDbPoint
 10
-3.5906314888159434
 20
3.4795639829615723
 30
0.0
  0
POINT
  5
FC
330
17
100
AcDbEntity
  8
nodes_0.0_0.0_True_True
100
AcDbPoint
 10
-3.5355339059327373
 20
3.5355339059327378
 30
0.0
  0
LINE
  5
FD
330
17
100
AcDbEntity
  8
elements_default
100
AcDbLine
 10
0.0
 20
0.0
 30
0.0
 11
3.5355339059327378
 21
-3.5355339059327378
 31
0.0
  0
LINE
  5
FE
330
17
100
AcDbEntity
  8
elements_default
100
AcDbLine
 10
0.0
 20
0.0
 30
0.0
 11
3.5906314888159447
 21
-3.4795639829615714
 31
0.0
  0
LINE
  5
FF
330
17
100
AcDbEntity
  8
elements_default
100
AcDbLine
 10
0.0
 20
0.0
 30
0.0
 11
3.644843137107058
 21
-3.422735529643443
 31
0.0
  0
LINE
  5
100
330
17
100
AcDbEntity
  8
elements_default
100
AcDbLine
 10
0.0
 20
0.0
 30
0.0
 11
3.6981554748930483
 21
-3.3650625675488666
 31
0.0
  0
LINE
  5
101
330
17
100
AcDbEntity
  8
elements_default
100
AcDbLine
 10
0.0
 20
0.0
 30
0.0
 11
3.750555348152298
 21
-3.306559326618259
 31
0.0
  0
LINE
  5
102
330
17
100
AcDbEntity
  8
elements_default
100
AcDbLine
 10
0.0
 20
0.0
 30
0.0
 11
3.8020298280001548
 21
-3.2472402416509185
 31
0.0
  0
LINE
  5
103
330
17
100
AcDbEntity
  8
elements_default
100
AcDbLine
 10
0.0
 20
0.0
 30
0.0
 11
3.852566213878946
 21
-3.1871199487434483
 31
0.0
  0
LINE
  5
104
330
17
100
AcDbEntity
  8
elements_default
100
AcDbLine
 10
0.0
 20
0.0
 30
0.0
 11
3.902152036691649
 21
-3.1262132816785253
 31
0.0
  0
LINE
  5
105
330
17
100
AcDbEntity
  8
elements_default
100
AcDbLine
 10
0.0
 20
0.0
 30
0.0
 11
3.950775061878452
 21
-3.0645352682648825
 31
0.0
  0
LINE
  5
106
330
17
100
AcDbEntity
  8
elements_default
100
AcDbLine
 10
0.0
 20
0.0
 30
0.0
 11
3.998423292435453
 21
-3.00210112662942
 31
0.0
  0
LINE
  5
107
330
17
100
AcDbEntity
  8
elements_default
100
AcDbLine
 10
0.0
 20
0.0
 30
0.0
 11
4.045084971874737
 21
-2.938926261462366
 31
0.0
  0
LINE
  5
108
330
17
100
AcDbEntity
  8
elements_default
100
AcDbLine
 10
0.0
 20
0.0
 30
0.0
 11
4.090748587125118
 21
-2.875026260216393
 31
0.0
  0
LINE
  5
109
330
17
100
AcDbEntity
  8
elements_default
100
AcDbLine
 10
0.0
 20
0.0
 30
0.0
 11
4.1354028713728095
 21
-2.8104168892606527
 31
0.0
  0
LINE
  5
10A
330
17
100
AcDbEntity
  8
elements_default
100
AcDbLine
 10
0.0
 20
0.0
 30
0.0
 11
4.179036806841351
 21
-2.745114089990659
 31
0.0
  0
LINE
  5
10B
330
17
100
AcDbEntity
  8
elements_default
100
AcDbLine
 10
0.0
 20
0.0
 30
0.0
 11
4.221639627510076
 21
-2.6791339748949827
 31
0.0
  0
LINE
  5
10C
330
17
100
AcDbEntity
  8
elements_default
100
AcDbLine
 10
0.0
 20
0.0
 30
0.0
 11
4.263200821770462
 21
-2.612492823579744
 31
0.0
  0
LINE
  5
10D
330
17
100
AcDbEntity
  8
elements_default
100
AcDbLine
 10
0.0
 20
0.0
 30
0.0
 11
4.303710135019719
 21
-2.545207078751856
 31
0.0
  0
LINE
  5
10E
330
17
100
AcDbEntity
  8
elements_default
100
AcDbLine
 10
0.0
 20
0.0
 30
0.0
 11
4.3431575721909566
 21
-2.4772933421620373
 31
0.0
  0
LINE
  5
10F
330
17
100
AcDbEntity
  8
elements_default
100
AcDbLine
 10
0.0
 20
0.0
 30
0.0
 11
4.381533400219318
 21
-2.4087683705085765
 31
0.0
  0
LINE
  5
110
330
17
100
AcDbEntity
  8
elements_default
100
AcDbLine
 10
0.0
 20
0.0
 30
0.0
 11
4.418828150443467
 21
-2.339649071302867
 31
0.0
  0
LINE
  5
111
330
17
100
AcDbEntity
  8
elements_default
100
AcDbLine
 10
0.0
 20
0.0
 30
0.0
 11
4.455032620941839
 21
-2.2699524986977337
 31
0.0
  0
LINE
  5
112
330
17
100
AcDbEntity
  8
elements_default
100
AcDbLine
 10
0.0
 20
0.0
 30
0.0
 11
4.490137878803078
 21
-2.1996958492795753
 31
0.0
  0
LINE
  5
113
330
17
100
AcDbEntity
  8
elements_default
100
AcDbLine
 10
0.0
 20
0.0
 30
0.0
 11
4.524135262330098
 21
-2.128896457825363
 31
0.0
  0
LINE
  5
114
330
17
100
AcDbEntity
  8
elements_default
100
AcDbLine
 10
0.0
 20
0.0
 30
0.0
 11
4.557016383177227
 21
-2.0575717930255437
 31
0.0
  0
LINE
  5
115
330
17
100
AcDbEntity
  8
elements_default
100
AcDbLine
 10
0.0
 20
0.0
 30
0.0
 11
4.588773128419906
 21
-1.9857394531739028
 31
0.0
  0
LINE
  5
116
330
17
100
AcDbEntity
  8
elements_default
100
AcDbLine
 10
0.0
 20
0.0
 30
0.0
 11
4.619397662556434
 21
-1.9134171618254485
 31
0.0
  0
LINE
  5
117
330
17
100
AcDbEntity
  8
elements_default
100
AcDbLine
 10
0.0
 20
0.0
 30
0.0
 11
4.648882429441257
 21
-1.8406227634233896
 31
0.0
  0
LINE
  5
118
330
17
100
AcDbEntity
  8
elements_default
100
AcDbLine
 10
0.0
 20
0.0
 30
0.0
 11
4.677220154149337
 21
-1.7673742188962853
 31
0.0
  0
LINE
  5
119
330
17
100
AcDbEntity
  8
elements_default
100
AcDbLine
 10
0.0
 20
0.0
 30
0.0
 11
4.704403844771127
 21
-1.6936896012264566
 31
0.0
  0
LINE
  5
11A
330
17
100
AcDbEntity
  8
elements_default
100
AcDbLine
 10
0.0
 20
0.0
 30
0.0
 11
4.730426794137727
 21
-1.6195870909907466
 31
0.0
  0
LINE
  5
11B
330
17
100
AcDbEntity
  8
elements_default
100
AcDbLine
 10
0.0
 20
0.0
 30
0.0
 11
4.755282581475768
 21
-1.5450849718747368
 31
0.0
  0
LINE
  5
11C
330
17
100
AcDbEntity
  8
elements_default
100
AcDbLine
 10
0.0
 20
0.0
 30
0.0
 11
4.7789650739916505
 21
-1.4702016261615198
 31
0.0
  0
LINE
  5
11D
330
17
100
AcDbEntity
  8
elements_default
100
AcDbLine
 10
0.0
 20
0.0
 30
0.0
 11
4.801468428384715
 21
-1.394955530196146
 31
0.0
  0
LINE
  5
11E
330
17
100
AcDbEntity
  8
elements_default
100
AcDbLine
 10
0.0
 20
0.0
 30
0.0
 11
4.822787092288991
 21
-1.319365249826864
 31
0.0
  0
LINE
  5
11F
330
17
100
AcDbEntity
  8
elements_default
100
AcDbLine
 10
0.0
 20
0.0
 30
0.0
 11
4.842915805643156
 21
-1.2434494358242734
 31
0.0
  0
LINE
  5
120
330
17
100
AcDbEntity
  8
elements_default
100
AcDbLine
 10
0.0
 20
0.0
 30
0.0
 11
4.861849601988383
 21
-1.167226819279527
 31
0.0
  0
LINE
  5
121
330
17
100
AcDbEntity
  8
elements_default
100
AcDbLine
 10
0.0
 20
0.0
 30
0.0
 11
4.879583809693737
 21
-1.0907162069827125
 31
0.0
  0
LINE
  5
122
330
17
100
AcDbEntity
  8
elements_default
100
AcDbLine
 10
0.0
 20
0.0
 30
0.0
 11
4.896114053108828
 21
-1.0139364767825623
 31
0.0
  0
LINE
  5
123
330
17
100
AcDbEntity
  8
elements_default
100
AcDbLine
 10
0.0
 20
0.0
 30
0.0
 11
4.911436253643443
 21
-0.9369065729286228
 31
0.0
  0
LINE
  5
124
330
17
100
AcDbEntity
  8
elements_default
100
AcDbLine
 10
0.0
 20
0.0
 30
0.0
 11
4.92554663077387
 21
-0.8596455013970472
 31
0.0
  0
LINE
  5
125
330
17
100
AcDbEntity
  8
elements_default
100
AcDbLine
 10
0.0
 20
0.0
 30
0.0
 11
4.938441702975689
 21
-0.7821723252011543
 31
0.0
  0
LINE
  5
126
330
17
100
AcDbEntity
  8
elements_default
100
AcDbLine
 10
0.0
 20
0.0
 30
0.0
 11
4.950118288582788
 21
-0.7045061596879132
 31
0.0
  0
LINE
  5
127
330
17
100
AcDbEntity
  8
elements_default
100
AcDbLine
 10
0.0
 20
0.0
 30
0.0
 11
4.9605735065723895
 21
-0.6266661678215211
 31
0.0
  0
LINE
  5
128
330
17
100
AcDbEntity
  8
elements_default
100
AcDbLine
 10
0.0
 20
0.0
 30
0.0
 11
4.969804777275899
 21
-0.548671555455226
 31
0.0
  0
LINE
  5
129
330
17
100
AcDbEntity
  8
elements_default
100
AcDbLine
 10
0.0
 20
0.0
 30
0.0
 11
4.9778098230154
 21
-0.4705415665925711
 31
0.0
  0
LINE
  5
12A
330
17
100
AcDbEntity
  8
elements_default
100
AcDbLine
 10
0.0
 20
0.0
 30
0.0
 11
4.9845866686656395
 21
-0.39229547863922415
 31
0.0
  0
LINE
  5
12B
330
17
100
AcDbEntity
  8
elements_default
100
AcDbLine
 10
0.0
 20
0.0
 30
0.0
 11
4.990133642141358
 21
-0.31395259764656674
 31
0.0
  0
LINE
  5
12C
330
17
100
AcDbEntity
  8
elements_default
100
AcDbLine
 10
0.0
 20
0.0
 30
0.0
 11
4.99444937480985
 21
-0.23553225354821308
 31
0.0
  0
LINE
  5
12D
330
17
100
AcDbEntity
  8
elements_default
100
AcDbLine
 10
0.0
 20
0.0
 30
0.0
 11
4.997532801828658
 21
-0.15705379539064115
 31
0.0
  0
LINE
  5
12E
330
17
100
AcDbEntity
  8
elements_default
100
AcDbLine
 10
0.0
 20
0.0
 30
0.0
 11
4.999383162408303
 21
-0.07853658655910292
 31
0.0
  0
LINE
  5
12F
330
17
100
AcDbEntity
  8
elements_default
100
AcDbLine
 10
0.0
 20
0.0
 30
0.0
 11
5.0
 21
5.551115123125783e-16
 31
0.0
  0
LINE
  5
130
330
17
100
AcDbEntity
  8
elements_default
100
AcDbLine
 10
0.0
 20
0.0
 30
0.0
 11
4.999383162408303
 21
0.07853658655910348
 31
0.0
  0
LINE
  5
131
330
17
100
AcDbEntity
  8
elements_default
100
AcDbLine
 10
0.0
 20
0.0
 30
0.0
 11
4.997532801828658
 21
0.15705379539064168
 31
0.0
  0
LINE
  5
132
330
17
100
AcDbEntity
  8
elements_default
100
AcDbLine
 10
0.0
 20
0.0
 30
0.0
 11
4.99444937480985
 21
0.23553225354821364
 31
0.0
  0
LINE
  5
133
330
17
100
AcDbEntity
  8
elements_default
100
AcDbLine
 10
0.0
 20
0.0
 30
0.0
 11
4.990133642141358
 21
0.3139525976465673
 31
0.0
  0
LINE
  5
134
330
17
100
AcDbEntity
  8
elements_default
100
AcDbLine
 10
0.0
 20
0.0
 30
0.0
 11
4.9845866686656395
 21
0.39229547863922526
 31
0.0
  0
LINE
  5
135
330
17
100
AcDbEntity
  8
elements_default
100
AcDbLine
 10
0.0
 20
0.0
 30
0.0
 11
4.9778098230154
 21
0.47054156659257224
 31
0.0
  0
LINE
  5
136
330
17
100
AcDbEntity
  8
elements_default
100
AcDbLine
 10
0.0
 20
0.0
 30
0.0
 11
4.969804777275899
 21
0.5486715554552266
 31
0.0
  0
LINE
  5
137
330
17
100
AcDbEntity
  8
elements_default
100
AcDbLine
 10
0.0
 20
0.0
 30
0.0
 11
4.9605735065723895
 21
0.6266661678215215
 31
0.0
  0
LINE
  5
138
330
17
100
AcDbEntity
  8
elements_default
100
AcDbLine
 10
0.0
 20
0.0
 30
0.0
 11
4.950118288582788
 21
0.7045061596879137
 31
0.0
  0
LINE
  5
139
330
17
100
AcDbEntity
  8
elements_default
100
AcDbLine
 10
0.0
 20
0.0
 30
0.0
 11
4.938441702975688
 21
0.7821723252011549
 31
0.0
  0
LINE
  5
13A
330
17
100
AcDbEntity
  8
elements_default
100
AcDbLine
 10
0.0
 20
0.0
 30
0.0
 11
4.925546630773869
 21
0.8596455013970483
 31
0.0
  0
LINE
  5
13B
330
17
100
AcDbEntity
  8
elements_default
100
AcDbLine
 10
0.0
 20
0.0
 30
0.0
 11
4.911436253643443
 21
0.9369065729286232
 31
0.0
  0
LINE
  5
13C
330
17
100
AcDbEntity
  8
elements_default
100
AcDbLine
 10
0.0
 20
0.0
 30
0.0
 11
4.896114053108828
 21
1.0139364767825627
 31
0.0
  0
LINE
  5
13D
330
17
100
AcDbEntity
  8
elements_default
100
AcDbLine
 10
0.0
 20
0.0
 30
0.0
 11
4.879583809693737
 21
1.0907162069827132
 31
0.0
  0
LINE
  5
13E
330
17
100
AcDbEntity
  8
elements_default
100
AcDbLine
 10
0.0
 20
0.0
 30
0.0
 11
4.861849601988383
 21
1.167226819279527
 31
0.0
  0
LINE
  5
13F
330
17
100
AcDbEntity
  8
elements_default
100
AcDbLine
 10
0.0
 20
0.0
 30
0.0
 11
4.842915805643155
 21
1.2434494358242745
 31
0.0
  0
LINE
  5
140
330
17
100
AcDbEntity
  8
elements_default
100
AcDbLine
 10
0.0
 20
0.0
 30
0.0
 11
4.822787092288991
 21
1.3193652498268647
 31
0.0
  0
LINE
  5
141
330
17
100
AcDbEntity
  8
elements_default
100
AcDbLine
 10
0.0
 20
0.0
 30
0.0
 11
4.801468428384715
 21
1.394955530196147
 31
0.0
  0
LINE
  5
142
330
17
100
AcDbEntity
  8
elements_default
100
AcDbLine
 10
0.0
 20
0.0
 30
0.0
 11
4.7789650739916505
 21
1.4702016261615203
 31
0.0
  0
LINE
  5
143
330
17
100
AcDbEntity
  8
elements_default
100
AcDbLine
 10
0.0
 20
0.0
 30
0.0
 11
4.755282581475767
 21
1.545084971874737
 31
0.0
  0
LINE
  5
144
330
17
100
AcDbEntity
  8
elements_default
100
AcDbLine
 10
0.0
 20
0.0
 30
0.0
 11
4.730426794137727
 21
1.6195870909907475
 31
0.0
  0
LINE
  5
145
330
17
100
AcDbEntity
  8
elements_default
100
AcDbLine
 10
0.0
 20
0.0
 30
0.0
 11
4.704403844771127
 21
1.693689601226457
 31
0.0
  0
LINE
  5
146
330
17
100
AcDbEntity
  8
elements_default
100
AcDbLine
 10
0.0
 20
0.0
 30
0.0
 11
4.677220154149336
 21
1.7673742188962862
 31
0.0
  0
LINE
  5
147
330
17
100
AcDbEntity
  8
elements_default
100
AcDbLine
 10
0.0
 20
0.0
 30
0.0
 11
4.648882429441256
 21
1.84062276342339
 31
0.0
  0
LINE
  5
148
330
17
100
AcDbEntity
  8
elements_default
100
AcDbLine
 10
0.0
 20
0.0
 30
0.0
 11
4.619397662556434
 21
1.913417161825449
 31
0.0
  0
LINE
  5
149
330
17
100
AcDbEntity
  8
elements_default
100
AcDbLine
 10
0.0
 20
0.0
 30
0.0
 11
4.588773128419906
 21
1.9857394531739037
 31
0.0
  0
LINE
  5
14A
330
17
100
AcDbEntity
  8
elements_default
100
AcDbLine
 10
0.0
 20
0.0
 30
0.0
 11
4.557016383177227
 21
2.057571793025544
 31
0.0
  0
LINE
  5
14B
330
17
100
AcDbEntity
  8
elements_default
100
AcDbLine
 10
0.0
 20
0.0
 30
0.0
 11
4.524135262330097
 21
2.128896457825364
 31
0.0
  0
LINE
  5
14C
330
17
100
AcDbEntity
  8
elements_default
100
AcDbLine
 10
0.0
 20
0.0
 30
0.0
 11
4.490137878803078
 21
2.1996958492795757
 31
0.0
  0
LINE
  5
14D
330
17
100
AcDbEntity
  8
elements_default
100
AcDbLine
 10
0.0
 20
0.0
 30
0.0
 11
4.455032620941839
 21
2.2699524986977337
 31
0.0
  0
LINE
  5
14E
330
17
100
AcDbEntity
  8
elements_default
100
AcDbLine
 10
0.0
 20
0.0
 30
0.0
 11
4.418828150443467
 21
2.3396490713028673
 31
0.0
  0
LINE
  5
14F
330
17
100
AcDbEntity
  8
elements_default
100
AcDbLine
 10
0.0
 20
0.0
 30
0.0
 11
4.381533400219318
 21
2.4087683705085765
 31
0.0
  0
LINE
  5
150
330
17
100
AcDbEntity
  8
elements_default
100
AcDbLine
 10
0.0
 20
0.0
 30
0.0
 11
4.343157572190956
 21
2.4772933421620382
 31
0.0
  0
LINE
  5
151
330
17
100
AcDbEntity
  8
elements_default
100
AcDbLine
 10
0.0
 20
0.0
 30
0.0
 11
4.303710135019719
 21
2.5452070787518566
 31
0.0
  0
LINE
  5
152
330
17
100
AcDbEntity
  8
elements_default
100
AcDbLine
 10
0.0
 20
0.0
 30
0.0
 11
4.26320082177046
 21
2.6124928235797453
 31
0.0
  0
LINE
  5
153
330
17
100
AcDbEntity
  8
elements_default
100
AcDbLine
 10
0.0
 20
0.0
 30
0.0
 11
4.221639627510075
 21
2.679133974894983
 31
0.0
  0
LINE
  5
154
330
17
100
AcDbEntity
  8
elements_default
100
AcDbLine
 10
0.0
 20
0.0
 30
0.0
 11
4.179036806841351
 21
2.745114089990659
 31
0.0
  0
LINE
  5
155
330
17
100
AcDbEntity
  8
elements_default
100
AcDbLine
 10
0.0
 20
0.0
 30
0.0
 11
4.135402871372809
 21
2.8104168892606536
 31
0.0
  0
LINE
  5
156
330
17
100
AcDbEntity
  8
elements_default
100
AcDbLine
 10
0.0
 20
0.0
 30
0.0
 11
4.090748587125117
 21
2.875026260216393
 31
0.0
  0
LINE
  5
157
330
17
100
AcDbEntity
  8
elements_default
100
AcDbLine
 10
0.0
 20
0.0
 30
0.0
 11
4.045084971874736
 21
2.9389262614623664
 31
0.0
  0
LINE
  5
158
330
17
100
AcDbEntity
  8
elements_default
100
AcDbLine
 10
0.0
 20
0.0
 30
0.0
 11
3.9984232924354526
 21
3.0021011266294204
 31
0.0
  0
LINE
  5
159
330
17
100
AcDbEntity
  8
elements_default
100
AcDbLine
 10
0.0
 20
0.0
 30
0.0
 11
3.950775061878452
 21
3.0645352682648825
 31
0.0
  0
LINE
  5
15A
330
17
100
AcDbEntity
  8
elements_default
100
AcDbLine
 10
0.0
 20
0.0
 30
0.0
 11
3.902152036691648
 21
3.1262132816785266
 31
0.0
  0
LINE
  5
15B
330
17
100
AcDbEntity
  8
elements_default
100
AcDbLine
 10
0.0
 20
0.0
 30
0.0
 11
3.8525662138789456
 21
3.1871199487434487
 31
0.0
  0
LINE
  5
15C
330
17
100
AcDbEntity
  8
elements_default
100
AcDbLine
 10
0.0
 20
0.0
 30
0.0
 11
3.802029828000154
 21
3.247240241650919
 31
0.0
  0
LINE
  5
15D
330
17
100
AcDbEntity
  8
elements_default
100
AcDbLine
 10
0.0
 20
0.0
 30
0.0
 11
3.7505553481522975
 21
3.3065593266182596
 31
0.0
  0
LINE
  5
15E
330
17
100
AcDbEntity
  8
elements_default
100
AcDbLine
 10
0.0
 20
0.0
 30
0.0
 11
3.6981554748930483
 21
3.3650625675488666
 31
0.0
  0
LINE
  5
15F
330
17
100
AcDbEntity
  8
elements_default
100
AcDbLine
 10
0.0
 20
0.0
 30
0.0
 11
3.644843137107057
 21
3.4227355296434436
 31
0.0
  0
LINE
  5
160
330
17
100
AcDbEntity
  8
elements_default
100
AcDbLine
 10
0.0
 20
0.0
 30
0.0
 11
3.5906314888159443
 21
3.4795639829615714
 31
0.0
  0
LINE
  5
161
330
17
100
AcDbEntity
  8
elements_default
100
AcDbLine
 10
0.0
 20
0.0
 30
0.0
 11
3.5355339059327378
 21
3.5355339059327378
 31
0.0
  0
LINE
  5
162
330
17
100
AcDbEntity
  8
elements_default
100
AcDbLine
 10
0.0
 20
0.0
 30
0.0
 11
-3.5355339059327386
 21
-3.5355339059327373
 31
0.0
  0
LINE
  5
163
330
17
100
AcDbEntity
  8
elements_default
100
AcDbLine
 10
0.0
 20
0.0
 30
0.0
 11
-3.5906314888159447
 21
-3.4795639829615714
 31
0.0
  0
LINE
  5
164
330
17
100
AcDbEntity
  8
elements_default
100
AcDbLine
 10
0.0
 20
0.0
 30
0.0
 11
-3.644843137107058
 21
-3.4227355296434436
 31
0.0
  0
LINE
  5
165
330
17
100
AcDbEntity
  8
elements_default
100
AcDbLine
 10
0.0
 20
0.0
 30
0.0
 11
-3.6981554748930496
 21
-3.3650625675488657
 31
0.0
  0
LINE
  5
166
330
17
100
AcDbEntity
  8
elements_default
100
AcDbLine
 10
0.0
 20
0.0
 30
0.0
 11
-3.7505553481522984
 21
-3.3065593266182587
 31
0.0
  0
LINE
  5
167
330
17
100
AcDbEntity
  8
elements_default
100
AcDbLine
 10
0.0
 20
0.0
 30
0.0
 11
-3.802029828000155
 21
-3.2472402416509176
 31
0.0
  0
LINE
  5
168
330
17
100
AcDbEntity
  8
elements_default
100
AcDbLine
 10
0.0
 20
0.0
 30
0.0
 11
-3.852566213878946
 21
-3.1871199487434483
 31
0.0
  0
LINE
  5
169
330
17
100
AcDbEntity
  8
elements_default
100
AcDbLine
 10
0.0
 20
0.0
 30
0.0
 11
-3.9021520366916485
 21
-3.1262132816785257
 31
0.0
  0
LINE
  5
16A
330
17
100
AcDbEntity
  8
elements_default
100
AcDbLine
 10
0.0
 20
0.0
 30
0.0
 11
-3.9507750618784527
 21
-3.064535268264881
 31
0.0
  0
LINE
  5
16B
330
17
100
AcDbEntity
  8
elements_default
100
AcDbLine
 10
0.0
 20
0.0
 30
0.0
 11
-3.9984232924354535
 21
-3.0021011266294195
 31
0.0
  0
LINE
  5
16C
330
17
100
AcDbEntity
  8
elements_default
100
AcDbLine
 10
0.0
 20
0.0
 30
0.0
 11
-4.045084971874737
 21
-2.938926261462365
 31
0.0
  0
LINE
  5
16D
330
17
100
AcDbEntity
  8
elements_default
100
AcDbLine
 10
0.0
 20
0.0
 30
0.0
 11
-4.090748587125118
 21
-2.8750262602163925
 31
0.0
  0
LINE
  5
16E
330
17
100
AcDbEntity
  8
elements_default
100
AcDbLine
 10
0.0
 20
0.0
 30
0.0
 11
-4.1354028713728095
 21
-2.8104168892606527
 31
0.0
  0
LINE
  5
16F
330
17
100
AcDbEntity
  8
elements_default
100
AcDbLine
 10
0.0
 20
0.0
 30
0.0
 11
-4.179036806841352
 21
-2.745114089990657
 31
0.0
  0
LINE
  5
170
330
17
100
AcDbEntity
  8
elements_default
100
AcDbLine
 10
0.0
 20
0.0
 30
0.0
 11
-4.221639627510076
 21
-2.6791339748949823
 31
0.0
  0
LINE
  5
171
330
17
100
AcDbEntity
  8
elements_default
100
AcDbLine
 10
0.0
 20
0.0
 30
0.0
 11
-4.263200821770462
 21
-2.6124928235797436
 31
0.0
  0
LINE
  5
172
330
17
100
AcDbEntity
  8
elements_default
100
AcDbLine
 10
0.0
 20
0.0
 30
0.0
 11
-4.303710135019719
 21
-2.545207078751856
 31
0.0
  0
LINE
  5
173
330
17
100
AcDbEntity
  8
elements_default
100
AcDbLine
 10
0.0
 20
0.0
 30
0.0
 11
-4.343157572190957
 21
-2.477293342162036
 31
0.0
  0
LINE
  5
174
330
17
100
AcDbEntity
  8
elements_default
100
AcDbLine
 10
0.0
 20
0.0
 30
0.0
 11
-4.381533400219318
 21
-2.408768370508575
 31
0.0
  0
LINE
  5
175
330
17
100
AcDbEntity
  8
elements_default
100
AcDbLine
 10
0.0
 20
0.0
 30
0.0
 11
-4.418828150443468
 21
-2.339649071302866
 31
0.0
  0
LINE
  5
176
330
17
100
AcDbEntity
  8
elements_default
100
AcDbLine
 10
0.0
 20
0.0
 30
0.0
 11
-4.455032620941839
 21
-2.2699524986977333
 31
0.0
  0
LINE
  5
177
330
17
100
AcDbEntity
  8
elements_default
100
AcDbLine
 10
0.0
 20
0.0
 30
0.0
 11
-4.490137878803078
 21
-2.1996958492795753
 31
0.0
  0
LINE
  5
178
330
17
100
AcDbEntity
  8
elements_default
100
AcDbLine
 10
0.0
 20
0.0
 30
0.0
 11
-4.524135262330097
 21
-2.1288964578253635
 31
0.0
  0
LINE
  5
179
330
17
100
AcDbEntity
  8
elements_default
100
AcDbLine
 10
0.0
 20
0.0
 30
0.0
 11
-4.557016383177227
 21
-2.0575717930255424
 31
0.0
  0
LINE
  5
17A
330
17
100
AcDbEntity
  8
elements_default
100
AcDbLine
 10
0.0
 20
0.0
 30
0.0
 11
-4.5887731284199065
 21
-1.985739453173902
 31
0.0
  0
LINE
  5
17B
330
17
100
AcDbEntity
  8
elements_default
100
AcDbLine
 10
0.0
 20
0.0
 30
0.0
 11
-4.619397662556434
 21
-1.9134171618254483
 31
0.0
  0
LINE
  5
17C
330
17
100
AcDbEntity
  8
elements_default
100
AcDbLine
 10
0.0
 20
0.0
 30
0.0
 11
-4.648882429441257
 21
-1.8406227634233896
 31
0.0
  0
LINE
  5
17D
330
17
100
AcDbEntity
  8
elements_default
100
AcDbLine
 10
0.0
 20
0.0
 30
0.0
 11
-4.677220154149337
 21
-1.7673742188962838
 31
0.0
  0
LINE
  5
17E
330
17
100
AcDbEntity
  8
elements_default
100
AcDbLine
 10
0.0
 20
0.0
 30
0.0
 11
-4.704403844771128
 21
-1.6936896012264555
 31
0.0
  0
LINE
  5
17F
330
17
100
AcDbEntity
  8
elements_default
100
AcDbLine
 10
0.0
 20
0.0
 30
0.0
 11
-4.730426794137727
 21
-1.619587090990746
 31
0.0
  0
LINE
  5
180
330
17
100
AcDbEntity
  8
elements_default
100
AcDbLine
 10
0.0
 20
0.0
 30
0.0
 11
-4.755282581475768
 21
-1.5450849718747364
 31
0.0
  0
LINE
  5
181
330
17
100
AcDbEntity
  8
elements_default
100
AcDbLine
 10
0.0
 20
0.0
 30
0.0
 11
-4.7789650739916505
 21
-1.4702016261615194
 31
0.0
  0
LINE
  5
182
330
17
100
AcDbEntity
  8
elements_default
100
AcDbLine
 10
0.0
 20
0.0
 30
0.0
 11
-4.801468428384715
 21
-1.3949555301961465
 31
0.0
  0
LINE
  5
183
330
17
100
AcDbEntity
  8
elements_default
100
AcDbLine
 10
0.0
 20
0.0
 30
0.0
 11
-4.822787092288991
 21
-1.3193652498268629
 31
0.0
  0
LINE
  5
184
330
17
100
AcDbEntity
  8
elements_default
100
AcDbLine
 10
0.0
 20
0.0
 30
0.0
 11
-4.842915805643156
 21
-1.243449435824273
 31
0.0
  0
LINE
  5
185
330
17
100
AcDbEntity
  8
elements_default
100
AcDbLine
 10
0.0
 20
0.0
 30
0.0
 11
-4.861849601988383
 21
-1.1672268192795263
 31
0.0
  0
LINE
  5
186
330
17
100
AcDbEntity
  8
elements_default
100
AcDbLine
 10
0.0
 20
0.0
 30
0.0
 11
-4.879583809693737
 21
-1.0907162069827125
 31
0.0
  0
LINE
  5
187
330
17
100
AcDbEntity
  8
elements_default
100
AcDbLine
 10
0.0
 20
0.0
 30
0.0
 11
-4.896114053108829
 21
-1.0139364767825605
 31
0.0
  0
LINE
  5
188
330
17
100
AcDbEntity
  8
elements_default
100
AcDbLine
 10
0.0
 20
0.0
 30
0.0
 11
-4.911436253643443
 21
-0.9369065729286217
 31
0.0
  0
LINE
  5
189
330
17
100
AcDbEntity
  8
elements_default
100
AcDbLine
 10
0.0
 20
0.0
 30
0.0
 11
-4.92554663077387
 21
-0.8596455013970467
 31
0.0
  0
LINE
  5
18A
330
17
100
AcDbEntity
  8
elements_default
100
AcDbLine
 10
0.0
 20
0.0
 30
0.0
 11
-4.938441702975689
 21
-0.7821723252011537
 31
0.0
  0
LINE
  5
18B
330
17
100
AcDbEntity
  8
elements_default
100
AcDbLine
 10
0.0
 20
0.0
 30
0.0
 11
-4.950118288582788
 21
-0.7045061596879131
 31
0.0
  0
LINE
  5
18C
330
17
100
AcDbEntity
  8
elements_default
100
AcDbLine
 10
0.0
 20
0.0
 30
0.0
 11
-4.9605735065723895
 21
-0.6266661678215214
 31
0.0
  0
LINE
  5
18D
330
17
100
AcDbEntity
  8
elements_default
100
AcDbLine
 10
0.0
 20
0.0
 30
0.0
 11
-4.969804777275899
 21
-0.5486715554552248
 31
0.0
  0
LINE
  5
18E
330
17
100
AcDbEntity
  8
elements_default
100
AcDbLine
 10
0.0
 20
0.0
 30
0.0
 11
-4.9778098230154
 21
-0.4705415665925705
 31
0.0
  0
LINE
  5
18F
330
17
100
AcDbEntity
  8
elements_default
100
AcDbLine
 10
0.0
 20
0.0
 30
0.0
 11
-4.9845866686656395
 21
-0.3922954786392241
 31
0.0
  0
LINE
  5
190
330
17
100
AcDbEntity
  8
elements_default
100
AcDbLine
 10
0.0
 20
0.0
 30
0.0
 11
-4.990133642141358
 21
-0.31395259764656674
 31
0.0
  0
LINE
  5
191
330
17
100
AcDbEntity
  8
elements_default
100
AcDbLine
 10
0.0
 20
0.0
 30
0.0
 11
-4.99444937480985
 21
-0.23553225354821133
 31
0.0
  0
LINE
  5
192
330
17
100
AcDbEntity
  8
elements_default
100
AcDbLine
 10
0.0
 20
0.0
 30
0.0
 11
-4.997532801828658
 21
-0.15705379539063996
 31
0.0
  0
LINE
  5
193
330
17
100
AcDbEntity
  8
elements_default
100
AcDbLine
 10
0.0
 20
0.0
 30
0.0
 11
-4.999383162408303
 21
-0.07853658655910231
 31
0.0
  0
LINE
  5
194
330
17
100
AcDbEntity
  8
elements_default
100
AcDbLine
 10
0.0
 20
0.0
 30
0.0
 11
-5.0
 21
6.123233995736766e-16
 31
0.0
  0
LINE
  5
195
330
17
100
AcDbEntity
  8
elements_default
100
AcDbLine
 10
0.0
 20
0.0
 30
0.0
 11
-4.999383162408303
 21
0.07853658655910355
 31
0.0
  0
LINE
  5
196
330
17
100
AcDbEntity
  8
elements_default
100
AcDbLine
 10
0.0
 20
0.0
 30
0.0
 11
-4.997532801828658
 21
0.15705379539064118
 31
0.0
  0
LINE
  5
197
330
17
100
AcDbEntity
  8
elements_default
100
AcDbLine
 10
0.0
 20
0.0
 30
0.0
 11
-4.994449374809849
 21
0.23553225354821478
 31
0.0
  0
LINE
  5
198
330
17
100
AcDbEntity
  8
elements_default
100
AcDbLine
 10
0.0
 20
0.0
 30
0.0
 11
-4.990133642141358
 21
0.3139525976465679
 31
0.0
  0
LINE
  5
199
330
17
100
AcDbEntity
  8
elements_default
100
AcDbLine
 10
0.0
 20
0.0
 30
0.0
 11
-4.9845866686656395
 21
0.3922954786392253
 31
0.0
  0
LINE
  5
19A
330
17
100
AcDbEntity
  8
elements_default
100
AcDbLine
 10
0.0
 20
0.0
 30
0.0
 11
-4.9778098230154
 21
0.47054156659257396
 31
0.0
  0
LINE
  5
19B
330
17
100
AcDbEntity
  8
elements_default
100
AcDbLine
 10
0.0
 20
0.0
 30
0.0
 11
-4.969804777275898
 21
0.5486715554552282
 31
0.0
  0
LINE
  5
19C
330
17
100
AcDbEntity
  8
elements_default
100
AcDbLine
 10
0.0
 20
0.0
 30
0.0
 11
-4.960573506572389
 21
0.6266661678215226
 31
0.0
  0
LINE
  5
19D
330
17
100
AcDbEntity
  8
elements_default
100
AcDbLine
 10
0.0
 20
0.0
 30
0.0
 11
-4.950118288582788
 21
0.7045061596879143
 31
0.0
  0
LINE
  5
19E
330
17
100
AcDbEntity
  8
elements_default
100
AcDbLine
 10
0.0
 20
0.0
 30
0.0
 11
-4.938441702975688
 21
0.7821723252011549
 31
0.0
  0
LINE
  5
19F
330
17
100
AcDbEntity
  8
elements_default
100
AcDbLine
 10
0.0
 20
0.0
 30
0.0
 11
-4.925546630773869
 21
0.8596455013970479
 31
0.0
  0
LINE
  5
1A0
330
17
100
AcDbEntity
  8
elements_default
100
AcDbLine
 10
0.0
 20
0.0
 30
0.0
 11
-4.911436253643443
 21
0.9369065729286229
 31
0.0
  0
LINE
  5
1A1
330
17
100
AcDbEntity
  8
elements_default
100
AcDbLine
 10
0.0
 20
0.0
 30
0.0
 11
-4.896114053108828
 21
1.0139364767825638
 31
0.0
  0
LINE
  5
1A2
330
17
100
AcDbEntity
  8
elements_default
100
AcDbLine
 10
0.0
 20
0.0
 30
0.0
 11
-4.879583809693736
 21
1.0907162069827139
 31
0.0
  0
LINE
  5
1A3
330
17
100
AcDbEntity
  8
elements_default
100
AcDbLine
 10
0.0
 20
0.0
 30
0.0
 11
-4.861849601988383
 21
1.1672268192795276
 31
0.0
  0
LINE
  5
1A4
330
17
100
AcDbEntity
  8
elements_default
100
AcDbLine
 10
0.0
 20
0.0
 30
0.0
 11
-4.8429158056431545
 21
1.2434494358242763
 31
0.0
  0
LINE
  5
1A5
330
17
100
AcDbEntity
  8
elements_default
100
AcDbLine
 10
0.0
 20
0.0
 30
0.0
 11
-4.82278709228899
 21
1.3193652498268662
 31
0.0
  0
LINE
  5
1A6
330
17
100
AcDbEntity
  8
elements_default
100
AcDbLine
 10
0.0
 20
0.0
 30
0.0
 11
-4.801468428384715
 21
1.3949555301961478
 31
0.0
  0
LINE
  5
1A7
330
17
100
AcDbEntity
  8
elements_default
100
AcDbLine
 10
0.0
 20
0.0
 30
0.0
 11
-4.7789650739916505
 21
1.4702016261615207
 31
0.0
  0
LINE
  5
1A8
330
17
100
AcDbEntity
  8
elements_default
100
AcDbLine
 10
0.0
 20
0.0
 30
0.0
 11
-4.755282581475767
 21
1.5450849718747375
 31
0.0
  0
LINE
  5
1A9
330
17
100
AcDbEntity
  8
elements_default
100
AcDbLine
 10
0.0
 20
0.0
 30
0.0
 11
-4.730426794137727
 21
1.6195870909907473
 31
0.0
  0
LINE
  5
1AA
330
17
100
AcDbEntity
  8
elements_default
100
AcDbLine
 10
0.0
 20
0.0
 30
0.0
 11
-4.704403844771127
 21
1.6936896012264566
 31
0.0
  0
LINE
  5
1AB
330
17
100
AcDbEntity
  8
elements_default
100
AcDbLine
 10
0.0
 20
0.0
 30
0.0
 11
-4.677220154149336
 21
1.767374218896287
 31
0.0
  0
LINE
  5
1AC
330
17
100
AcDbEntity
  8
elements_default
100
AcDbLine
 10
0.0
 20
0.0
 30
0.0
 11
-4.648882429441256
 21
1.8406227634233907
 31
0.0
  0
LINE
  5
1AD
330
17
100
AcDbEntity
  8
elements_default
100
AcDbLine
 10
0.0
 20
0.0
 30
0.0
 11
-4.619397662556434
 21
1.9134171618254494
 31
0.0
  0
LINE
  5
1AE
330
17
100
AcDbEntity
  8
elements_default
100
AcDbLine
 10
0.0
 20
0.0
 30
0.0
 11
-4.588773128419905
 21
1.9857394531739052
 31
0.0
  0
LINE
  5
1AF
330
17
100
AcDbEntity
  8
elements_default
100
AcDbLine
 10
0.0
 20
0.0
 30
0.0
 11
-4.557016383177225
 21
2.0575717930255455
 31
0.0
  0
LINE
  5
1B0
330
17
100
AcDbEntity
  8
elements_default
100
AcDbLine
 10
0.0
 20
0.0
 30
0.0
 11
-4.5241352623300966
 21
2.1288964578253644
 31
0.0
  0
LINE
  5
1B1
330
17
100
AcDbEntity
  8
elements_default
100
AcDbLine
 10
0.0
 20
0.0
 30
0.0
 11
-4.490137878803077
 21
2.1996958492795766
 31
0.0
  0
LINE
  5
1B2
330
17
100
AcDbEntity
  8
elements_default
100
AcDbLine
 10
0.0
 20
0.0
 30
0.0
 11
-4.455032620941839
 21
2.269952498697734
 31
0.0
  0
LINE
  5
1B3
330
17
100
AcDbEntity
  8
elements_default
100
AcDbLine
 10
0.0
 20
0.0
 30
0.0
 11
-4.418828150443467
 21
2.339649071302867
 31
0.0
  0
LINE
  5
1B4
330
17
100
AcDbEntity
  8
elements_default
100
AcDbLine
 10
0.0
 20
0.0
 30
0.0
 11
-4.381533400219318
 21
2.408768370508576
 31
0.0
  0
LINE
  5
1B5
330
17
100
AcDbEntity
  8
elements_default
100
AcDbLine
 10
0.0
 20
0.0
 30
0.0
 11
-4.343157572190956
 21
2.4772933421620387
 31
0.0
  0
LINE
  5
1B6
330
17
100
AcDbEntity
  8
elements_default
100
AcDbLine
 10
0.0
 20
0.0
 30
0.0
 11
-4.303710135019718
 21
2.545207078751857
 31
0.0
  0
LINE
  5
1B7
330
17
100
AcDbEntity
  8
elements_default
100
AcDbLine
 10
0.0
 20
0.0
 30
0.0
 11
-4.26320082177046
 21
2.6124928235797467
 31
0.0
  0
LINE
  5
1B8
330
17
100
AcDbEntity
  8
elements_default
100
AcDbLine
 10
0.0
 20
0.0
 30
0.0
 11
-4.221639627510074
 21
2.679133974894985
 31
0.0
  0
LINE
  5
1B9
330
17
100
AcDbEntity
  8
elements_default
100
AcDbLine
 10
0.0
 20
0.0
 30
0.0
 11
-4.17903680684135
 21
2.7451140899906603
 31
0.0
  0
LINE
  5
1BA
330
17
100
AcDbEntity
  8
elements_default
100
AcDbLine
 10
0.0
 20
0.0
 30
0.0
 11
-4.135402871372808
 21
2.810416889260654
 31
0.0
  0
LINE
  5
1BB
330
17
100
AcDbEntity
  8
elements_default
100
AcDbLine
 10
0.0
 20
0.0
 30
0.0
 11
-4.090748587125116
 21
2.8750262602163934
 31
0.0
  0
LINE
  5
1BC
330
17
100
AcDbEntity
  8
elements_default
100
AcDbLine
 10
0.0
 20
0.0
 30
0.0
 11
-4.045084971874736
 21
2.9389262614623664
 31
0.0
  0
LINE
  5
1BD
330
17
100
AcDbEntity
  8
elements_default
100
AcDbLine
 10
0.0
 20
0.0
 30
0.0
 11
-3.9984232924354526
 21
3.00210112662942
 31
0.0
  0
LINE
  5
1BE
330
17
100
AcDbEntity
  8
elements_default
100
AcDbLine
 10
0.0
 20
0.0
 30
0.0
 11
-3.950775061878452
 21
3.0645352682648817
 31
0.0
  0
LINE
  5
1BF
330
17
100
AcDbEntity
  8
elements_default
100
AcDbLine
 10
0.0
 20
0.0
 30
0.0
 11
-3.902152036691648
 21
3.126213281678527
 31
0.0
  0
LINE
  5
1C0
330
17
100
AcDbEntity
  8
elements_default
100
AcDbLine
 10
0.0
 20
0.0
 30
0.0
 11
-3.8525662138789456
 21
3.187119948743449
 31
0.0
  0
LINE
  5
1C1
330
17
100
AcDbEntity
  8
elements_default
100
AcDbLine
 10
0.0
 20
0.0
 30
0.0
 11
-3.802029828000153
 21
3.2472402416509203
 31
0.0
  0
LINE
  5
1C2
330
17
100
AcDbEntity
  8
elements_default
100
AcDbLine
 10
0.0
 20
0.0
 30
0.0
 11
-3.750555348152296
 21
3.3065593266182614
 31
0.0
  0
LINE
  5
1C3
330
17
100
AcDbEntity
  8
elements_default
100
AcDbLine
 10
0.0
 20
0.0
 30
0.0
 11
-3.6981554748930474
 21
3.3650625675488683
 31
0.0
  0
LINE
  5
1C4
330
17
100
AcDbEntity
  8
elements_default
100
AcDbLine
 10
0.0
 20
0.0
 30
0.0
 11
-3.6448431371070567
 21
3.422735529643444
 31
0.0
  0
LINE
  5
1C5
330
17
100
AcDbEntity
  8
elements_default
100
AcDbLine
 10
0.0
 20
0.0
 30
0.0
 11
-3.5906314888159434
 21
3.4795639829615723
 31
0.0
  0
LINE
  5
1C6
330
17
100
AcDbEntity
  8
elements_default
100
AcDbLine
 10
0.0
 20
0.0
 30
0.0
 11
-3.5355339059327373
 21
3.5355339059327378
 31
0.0
  0
ENDSEC
  0
SECTION
  2
OBJECTS
  0
DICTIONARY
  5
A
330
0
100
AcDbDictionary
280
0
281
1
  3
ACAD_COLOR
350
B
  3
ACAD_GROUP
350
C
  3
ACAD_LAYOUT
350
D
  3
ACAD_MATERIAL
350
E
  3
ACAD_MLEADERSTYLE
350
F
  3
ACAD_MLINESTYLE
350
10
  3
ACAD_PLOTSETTINGS
350
11
  3
ACAD_PLOTSTYLENAME
350
12
  3
ACAD_SCALELIST
350
14
  3
ACAD_TABLESTYLE
350
15
  3
ACAD_VISUALSTYLE
350
16
  3
EZDXF_META
350
2D
  0
DICTIONARY
  5
B
330
A
100
AcDbDictionary
280
0
281
1
  0
DICTIONARY
  5
C
330
A
100
AcDbDictionary
280
0
281
1
  0
DICTIONARY
  5
D
330
A
100
AcDbDictionary
280
0
281
1
  3
Model
350
1A
  3
Layout1
350
1E
  0
DICTIONARY
  5
E
330
A
100
AcDbDictionary
280
0
281
1
  3
ByBlock
350
1F
  3
ByLayer
350
20
  3
Global
350
21
  0
DICTIONARY
  5
F
330
A
100
AcDbDictionary
280
0
281
1
  3
Standard
350
2C
  0
DICTIONARY
  5
10
330
A
100
AcDbDictionary
280
0
281
1
  3
Standard
350
22
  0
DICTIONARY
  5
11
330
A
100
AcDbDictionary
280
0
281
1
  0
ACDBDICTIONARYWDFLT
  5
12
330
A
100
AcDbDictionary
280
0
281
1
  3
Normal
350
13
100
AcDbDictionaryWithDefault
340
13
  0
ACDBPLACEHOLDER
  5
13
330
12
  0
DICTIONARY
  5
14
330
A
100
AcDbDictionary
280
0
281
1
  0
DICTIONARY
  5
15
330
A
100
AcDbDictionary
280
0
281
1
  0
DICTIONARY
  5
16
330
A
100
AcDbDictionary
280
0
281
1
  0
LAYOUT
  5
1A
330
D
100
AcDbPlotSettings
  1

  2
Adobe PDF
  4
A3
  6

 40
7.5
 41
20.0
 42
7.5
 43
20.0
 44
420.0
 45
297.0
 46
0.0
 47
0.0
 48
0.0
 49
0.0
140
0.0
141
0.0
142
1.0
143
1.0
 70
1024
 72
1
 73
0
 74
5
  7

 75
16
 76
0
 77
2
 78
300
147
1.0
148
0.0
149
0.0
100
AcDbLayout
  1
Model
 70
1
 71
0
 10
0.0
 20
0.0
 11
420.0
 21
297.0
 12
0.0
 22
0.0
 32
0.0
 14
1e+20
 24
1e+20
 34
1e+20
 15
-1e+20
 25
-1e+20
 35
-1e+20
146
0.0
 13
0.0
 23
0.0
 33
0.0
 16
1.0
 26
0.0
 36
0.0
 17
0.0
 27
1.0
 37
0.0
 76
1
330
17
  0
LAYOUT
  5
1E
330
D
100
AcDbPlotSettings
  1

  2
Adobe PDF
  4
A3
  6

 40
7.5
 41
20.0
 42
7.5
 43
20.0
 44
420.0
 45
297.0
 46
0.0
 47
0.0
 48
0.0
 49
0.0
140
0.0
141
0.0
142
1.0
143
1.0
 70
0
 72
1
 73
0
 74
5
  7

 75
16
 76
0
 77
2
 78
300
147
1.0
148
0.0
149
0.0
100
AcDbLayout
  1
Layout1
 70
1
 71
1
 10
0.0
 20
0.0
 11
420.0
 21
297.0
 12
0.0
 22
0.0
 32
0.0
 14
1e+20
 24
1e+20
 34
1e+20
 15
-1e+20
 25
-1e+20
 35
-1e+20
146
0.0
 13
0.0
 23
0.0
 33
0.0
 16
1.0
 26
0.0
 36
0.0
 17
0.0
 27
1.0
 37
0.0
 76
1
330
1B
  0
MATERIAL
  5
1F
102
{ACAD_REACTORS
330
E
102
}
330
E
100
AcDbMaterial
  1
ByBlock
  2

 70
0
 40
1.0
 71
1
 41
1.0
 91
-1023410177
 42
1.0
 72
1
  3

 73
1
 74
1
 75
1
 44
0.5
 73
0
 45
1.0
 46
1.0
 77
1
  4

 78
1
 79
1
170
1
 48
1.0
171
1
  6

172
1
173
1
174
1
140
1.0
141
1.0
175
1
  7

176
1
177
1
178
1
143
1.0
179
1
  8

270
1
271
1
272
1
145
1.0
146
1.0
273
1
  9

274
1
275
1
276
1
 42
1.0
 72
1
  3

 73
1
 74
1
 75
1
 94
63
  0
MATERIAL
  5
20
102
{ACAD_REACTORS
330
E
102
}
330
E
100
AcDbMaterial
  1
ByLayer
  2

 70
0
 40
1.0
 71
1
 41
1.0
 91
-1023410177
 42
1.0
 72
1
  3

 73
1
 74
1
 75
1
 44
0.5
 73
0
 45
1.0
 46
1.0
 77
1
  4

 78
1
 79
1
170
1
 48
1.0
171
1
  6

172
1
173
1
174
1
140
1.0
141
1.0
175
1
  7

176
1
177
1
178
1
143
1.0
179
1
  8

270
1
271
1
272
1
145
1.0
146
1.0
273
1
  9

274
1
275
1
276
1
 42
1.0
 72
1
  3

 73
1
 74
1
 75
1
 94
63
  0
MATERIAL
  5
21
102
{ACAD_REACTORS
330
E
102
}
330
E
100
AcDbMaterial
  1
Global
  2

 70
0
 40
1.0
 71
1
 41
1.0
 91
-1023410177
 42
1.0
 72
1
  3

 73
1
 74
1
 75
1
 44
0.5
 73
0
 45
1.0
 46
1.0
 77
1
  4

 78
1
 79
1
170
1
 48
1.0
171
1
  6

172
1
173
1
174
1
140
1.0
141
1.0
175
1
  7

176
1
177
1
178
1
143
1.0
179
1
  8

270
1
271
1
272
1
145
1.0
146
1.0
273
1
  9

274
1
275
1
276
1
 42
1.0
 72
1
  3

 73
1
 74
1
 75
1
 94
63
  0
MLINESTYLE
  5
22
102
{ACAD_REACTORS
330
10
102
}
330
10
100
AcDbMlineStyle
  2
Standard
 70
0
  3

 62
256
 51
90.0
 52
90.0
 71
2
 49
0.5
 62
256
  6
BYLAYER
 49
-0.5
 62
256
  6
BYLAYER
  0
MLEADERSTYLE
  5
2C
102
{ACAD_REACTORS
330
F
102
}
330
F
100
AcDbMLeaderStyle
179
2
170
2
171
1
172
0
 90
2
 40
0.0
 41
0.0
173
1
 91
-1056964608
 92
-2
290
1
 42
2.0
291
1
 43
8.0
  3
Standard
 44
4.0
300

342
29
174
1
175
1
176
0
178
1
 93
-1056964608
 45
4.0
292
0
297
0
 46
4.0
 94
-1056964608
 47
1.0
 49
1.0
140
1.0
294
1
141
0.0
177
0
142
1.0
295
0
296
0
143
3.75
271
0
272
9
273
9
  0
DICTIONARY
  5
2D
330
A
100
AcDbDictionary
281
1
  3
CREATED_BY_EZDXF
350
2E
  3
WRITTEN_BY_EZDXF
350
1C9
  0
DICTIONARYVAR
  5
2E
330
2D
100
DictionaryVariables
280
0
  1
1.1.4 @ 2024-03-19T17:48:24.994239+00:00
  0
DICTIONARYVAR
  5
1C9
330
2D
100
DictionaryVariables
280
0
  1
1.1.4 @ 2024-03-19T17:48:25.002238+00:00
  0
ENDSEC
  0
EOF
